<svg width="818" height="720" viewBox="0 0 818 720" fill="none" xmlns="http://www.w3.org/2000/svg">
<path d="M814.851 710.993C814.951 710.873 815.058 710.754 815.156 710.63C815.288 710.463 815.412 710.291 815.535 710.117C815.635 709.977 815.735 709.836 815.828 709.691C815.928 709.53 816.028 709.365 816.128 709.199C816.228 709.033 816.323 708.859 816.413 708.685C816.49 708.535 816.56 708.385 816.63 708.23C816.721 708.03 816.809 707.835 816.89 707.63C816.946 707.487 816.996 707.342 817.047 707.197C817.122 706.983 817.195 706.768 817.258 706.549C817.301 706.399 817.336 706.249 817.374 706.095C817.426 705.882 817.474 705.669 817.517 705.452C817.55 705.274 817.574 705.094 817.599 704.915C817.624 704.736 817.653 704.532 817.67 704.339C817.69 704.114 817.697 703.888 817.704 703.662C817.709 703.51 817.718 703.362 817.716 703.205C817.716 702.933 817.696 702.66 817.675 702.387C817.668 702.294 817.67 702.203 817.661 702.109C817.661 702.084 817.652 702.06 817.65 702.034C817.621 701.768 817.575 701.502 817.528 701.234C817.504 701.101 817.487 700.966 817.459 700.834C817.416 700.634 817.359 700.434 817.305 700.234C817.251 700.034 817.205 699.843 817.143 699.652C817.1 699.521 817.043 699.391 816.999 699.26C816.908 699.011 816.817 698.76 816.71 698.521C816.699 698.497 816.692 698.472 816.681 698.447L796.698 654.04C796.062 652.627 795.154 651.352 794.025 650.29C792.897 649.227 791.57 648.398 790.121 647.848C787.194 646.738 783.946 646.836 781.092 648.12C778.237 649.405 776.01 651.771 774.9 654.698C773.789 657.625 773.887 660.872 775.172 663.727L780.488 675.54L617.288 581.319V360.993C617.288 360.957 617.281 360.923 617.281 360.888C617.277 360.407 617.244 359.926 617.181 359.449C617.181 359.415 617.168 359.382 617.164 359.349C617.102 358.919 617.016 358.492 616.907 358.071C616.877 357.952 616.842 357.835 616.807 357.717C616.707 357.374 616.591 357.035 616.459 356.698C616.414 356.582 616.372 356.465 616.323 356.35C616.142 355.922 615.936 355.504 615.706 355.1L615.696 355.084C615.461 354.681 615.202 354.293 614.921 353.921C614.848 353.821 614.768 353.731 614.692 353.636C614.465 353.35 614.227 353.077 613.977 352.817C613.894 352.731 613.812 352.645 613.726 352.561C613.413 352.252 613.083 351.961 612.737 351.69C612.714 351.672 612.693 351.651 612.669 351.633C612.286 351.342 611.885 351.075 611.469 350.833C611.439 350.815 611.412 350.792 611.381 350.774L420.57 240.6V48.362L427.659 58.2C429.489 60.7396 432.253 62.4482 435.343 62.9499C438.432 63.4517 441.595 62.7055 444.135 60.8755C446.674 59.0455 448.383 56.2816 448.885 53.1919C449.386 50.1021 448.64 46.9396 446.81 44.4L418.343 4.892C418.328 4.871 418.311 4.853 418.296 4.833C418.137 4.615 417.964 4.406 417.789 4.198C417.703 4.098 417.622 3.99 417.533 3.892C417.394 3.738 417.243 3.592 417.094 3.444C416.945 3.296 416.817 3.161 416.671 3.03C416.565 2.93 416.45 2.845 416.339 2.753C416.139 2.585 415.939 2.419 415.732 2.267C415.709 2.25 415.689 2.232 415.667 2.215C415.584 2.155 415.496 2.107 415.412 2.05C415.195 1.902 414.977 1.756 414.752 1.624C414.611 1.541 414.467 1.468 414.324 1.391C414.133 1.291 413.943 1.191 413.748 1.091C413.553 0.991003 413.375 0.930003 413.187 0.854003C413.028 0.790003 412.87 0.724003 412.708 0.667003C412.492 0.590003 412.273 0.525003 412.053 0.461003C411.912 0.420003 411.771 0.378003 411.628 0.342003C411.4 0.285003 411.17 0.242003 410.939 0.196003C410.795 0.169003 410.653 0.141003 410.508 0.120003C410.286 0.0870027 410.065 0.0640027 409.842 0.0440027C409.68 0.0290027 409.519 0.0140027 409.356 0.00600275C409.156 -0.00399725 408.956 -0.00499725 408.756 -0.00499725C408.556 -0.00499725 408.381 -0.00499725 408.192 0.00500275C408.003 0.0150027 407.844 0.0300027 407.67 0.0460027C407.46 0.0660027 407.249 0.0870028 407.039 0.118003C406.884 0.141003 406.73 0.171003 406.575 0.200003C406.355 0.242003 406.135 0.285003 405.917 0.340003C405.764 0.378003 405.617 0.423003 405.463 0.467003C405.252 0.529003 405.042 0.591003 404.833 0.667003C404.666 0.726003 404.501 0.794003 404.333 0.861003C404.151 0.935003 403.968 1.008 403.789 1.092C403.589 1.184 403.395 1.292 403.2 1.392C403.061 1.468 402.92 1.538 402.782 1.62C402.555 1.753 402.336 1.9 402.118 2.049C402.035 2.106 401.948 2.149 401.866 2.212C401.843 2.228 401.824 2.247 401.801 2.264C401.594 2.416 401.395 2.581 401.196 2.748C401.084 2.841 400.968 2.931 400.86 3.028C400.717 3.157 400.583 3.298 400.445 3.435C400.307 3.572 400.139 3.735 399.997 3.892C399.913 3.986 399.835 4.092 399.753 4.185C399.574 4.397 399.397 4.611 399.234 4.833C399.22 4.853 399.203 4.869 399.189 4.889L370.726 44.4C369.82 45.6575 369.17 47.0812 368.814 48.5898C368.459 50.0984 368.403 51.6623 368.652 53.1922C369.154 56.2821 370.862 59.046 373.402 60.876C375.942 62.706 379.104 63.4521 382.194 62.9503C385.284 62.4484 388.048 60.7397 389.878 58.2L396.965 48.363V240.6L206.149 350.771C206.119 350.788 206.094 350.81 206.065 350.827C205.647 351.071 205.245 351.34 204.86 351.634C204.838 351.65 204.819 351.669 204.797 351.686C204.449 351.959 204.118 352.252 203.803 352.562C203.718 352.645 203.637 352.73 203.555 352.816C203.303 353.077 203.064 353.352 202.835 353.639C202.76 353.732 202.682 353.823 202.611 353.92C202.038 354.666 201.565 355.484 201.205 356.353C201.158 356.465 201.118 356.578 201.073 356.692C200.94 357.032 200.822 357.375 200.721 357.722C200.688 357.837 200.655 357.951 200.621 358.067C200.51 358.493 200.423 358.925 200.361 359.361C200.361 359.39 200.35 359.417 200.346 359.446C200.283 359.925 200.25 360.407 200.246 360.89C200.246 360.925 200.24 360.958 200.24 360.99V581.327L37.68 675.186L42.832 663.736C43.4681 662.323 43.8195 660.798 43.8663 659.248C43.913 657.699 43.6541 656.156 43.1044 654.706C42.5546 653.257 41.7248 651.93 40.6624 650.802C39.5999 649.673 38.3255 648.765 36.912 648.129C35.4986 647.493 33.9736 647.142 32.4243 647.095C30.875 647.048 29.3317 647.307 27.8825 647.857C26.4332 648.406 25.1064 649.236 23.9779 650.299C22.8493 651.361 21.9411 652.636 21.305 654.049L1.32304 698.456C1.31304 698.478 1.30604 698.5 1.29704 698.522C1.18504 698.774 1.08904 699.034 0.99704 699.295C0.95304 699.415 0.904044 699.535 0.864044 699.656C0.800044 699.856 0.750045 700.056 0.696045 700.262C0.642045 700.468 0.58905 700.644 0.54805 700.837C0.51905 700.974 0.500044 701.114 0.476044 701.253C0.430044 701.513 0.38504 701.773 0.35704 702.034C0.35704 702.06 0.348047 702.086 0.345047 702.112C0.335047 702.212 0.338048 702.305 0.330048 702.402C0.310048 702.67 0.292039 702.937 0.290039 703.202C0.290039 703.359 0.298048 703.514 0.302048 703.67C0.309048 703.893 0.316044 704.116 0.336044 704.337C0.353044 704.532 0.381051 704.725 0.408051 704.917C0.435051 705.109 0.456044 705.274 0.489044 705.451C0.529044 705.668 0.580041 705.882 0.633041 706.095C0.670041 706.247 0.706039 706.395 0.749039 706.55C0.811039 706.768 0.884045 706.981 0.959045 707.194C1.01005 707.341 1.05905 707.487 1.11705 707.631C1.19705 707.831 1.28505 708.031 1.37505 708.224C1.44605 708.378 1.51705 708.533 1.59505 708.684C1.68305 708.856 1.77905 709.024 1.87505 709.191C1.97105 709.358 2.07505 709.527 2.17505 709.691C2.26705 709.833 2.36405 709.971 2.46205 710.108C2.58705 710.286 2.71304 710.461 2.84904 710.632C2.94404 710.752 3.04404 710.867 3.14404 710.983C3.29204 711.156 3.44404 711.327 3.60104 711.491C3.70904 711.602 3.82104 711.708 3.93304 711.815C4.09304 711.968 4.25304 712.115 4.42204 712.265C4.55904 712.381 4.70104 712.49 4.84204 712.6C4.98304 712.71 5.14904 712.841 5.31004 712.954C5.49204 713.082 5.68204 713.199 5.87204 713.317C6.00404 713.399 6.13305 713.484 6.27205 713.561C6.50605 713.693 6.74704 713.812 6.99104 713.929C7.07704 713.971 7.15805 714.02 7.24605 714.06L7.31804 714.087C7.60604 714.215 7.90405 714.326 8.20505 714.431C8.29805 714.464 8.39004 714.503 8.48404 714.531C8.73004 714.611 8.98404 714.672 9.23904 714.731C9.39104 714.769 9.53904 714.816 9.69304 714.848C9.78504 714.867 9.88104 714.875 9.97404 714.892C10.292 714.95 10.61 715.005 10.929 715.036L59.3511 719.936C59.7551 719.976 60.155 719.996 60.551 719.996C63.5869 720.008 66.5106 718.849 68.7142 716.761C70.9178 714.673 72.2317 711.815 72.3828 708.783C72.5338 705.751 71.5104 702.777 69.5253 700.48C67.5402 698.183 64.7461 696.74 61.724 696.45L50.0921 695.274L212.051 601.767L402.867 711.94C402.897 711.957 402.93 711.968 402.96 711.986C403.38 712.225 403.814 712.438 404.26 712.623C404.288 712.635 404.317 712.643 404.344 712.654C404.752 712.818 405.168 712.958 405.592 713.075C405.708 713.107 405.823 713.136 405.94 713.165C406.29 713.251 406.645 713.321 407.006 713.374C407.127 713.393 407.246 713.415 407.367 713.43C408.299 713.551 409.243 713.551 410.175 713.43C410.296 713.415 410.415 713.393 410.535 713.374C410.897 713.32 411.253 713.25 411.602 713.165C411.718 713.136 411.834 713.107 411.95 713.075C412.374 712.958 412.79 712.818 413.198 712.654C413.226 712.643 413.254 712.635 413.282 712.623C413.728 712.438 414.162 712.225 414.582 711.986C414.613 711.968 414.646 711.957 414.676 711.94L605.486 601.771L767.514 695.318L756.279 696.454C753.257 696.744 750.463 698.187 748.478 700.484C746.493 702.781 745.469 705.755 745.62 708.787C745.771 711.819 747.085 714.677 749.289 716.765C751.492 718.853 754.416 720.012 757.452 720C757.852 720 758.252 719.98 758.652 719.94L807.076 715.04C807.376 715.01 807.676 714.958 807.976 714.904C808.088 714.884 808.204 714.874 808.314 714.851C808.452 714.822 808.588 714.779 808.726 714.745C808.995 714.679 809.264 714.613 809.526 714.53C809.609 714.503 809.69 714.468 809.772 714.439C810.085 714.331 810.394 714.215 810.693 714.082C810.715 714.073 810.737 714.067 810.758 714.057C810.838 714.021 810.912 713.976 810.991 713.938C811.244 713.817 811.491 713.693 811.738 713.555C811.867 713.483 811.988 713.403 812.113 713.326C812.313 713.203 812.507 713.081 812.697 712.948C812.852 712.839 812.997 712.722 813.149 712.607C813.301 712.492 813.442 712.38 813.583 712.26C813.748 712.118 813.905 711.97 814.061 711.82C814.176 711.71 814.293 711.601 814.403 711.486C814.559 711.329 814.706 711.162 814.851 710.993ZM408.768 460.94L235.656 360.993L408.768 261.045L581.881 360.993L408.768 460.94ZM223.853 381.435L396.965 481.382V681.276L223.853 581.328V381.435ZM420.57 681.276V481.382L593.684 381.435V581.328L420.57 681.276Z" fill="white"/>
</svg>
