<svg width="740" height="720" viewBox="0 0 740 720" fill="none" xmlns="http://www.w3.org/2000/svg">
<path d="M625.4 471.55H614.583V234.327C614.582 232.66 613.919 231.062 612.741 229.883C611.563 228.704 609.966 228.04 608.299 228.038H568.413V217.221H608.3C612.834 217.227 617.181 219.031 620.387 222.238C623.593 225.445 625.396 229.793 625.4 234.327V471.55Z" fill="white"/>
<path d="M490.243 602.326H17.3199C12.7846 602.321 8.43658 600.517 5.22968 597.31C2.02277 594.103 0.218896 589.755 0.213867 585.22V234.327C0.218896 229.792 2.02277 225.444 5.22968 222.237C8.43658 219.03 12.7846 217.226 17.3199 217.221H53.7699V228.038H17.3199C15.653 228.041 14.0553 228.705 12.8767 229.884C11.6982 231.062 11.0348 232.66 11.0319 234.327V585.22C11.0348 586.887 11.6982 588.485 12.8767 589.663C14.0553 590.842 15.653 591.506 17.3199 591.509H490.243V602.326Z" fill="white"/>
<path d="M573.821 175.844H563.004V454.355H573.821V175.844Z" fill="white"/>
<path d="M313.4 601.812L308.794 592.024C309.414 591.732 324.306 584.779 352.537 576.362C378.453 568.634 421.01 558.179 476.574 552.253L477.721 563.009C373.062 574.171 313.981 601.536 313.4 601.812Z" fill="white"/>
<path d="M313.392 224.771L308.792 214.982C309.766 214.524 333.165 203.623 377.033 192.614C417.348 182.495 483.277 170.434 568.417 170.434V181.251C484.58 181.251 419.708 193.083 380.051 203.009C337.073 213.765 313.624 224.663 313.392 224.771Z" fill="white"/>
<path d="M308.791 601.811C308.432 601.643 284.991 590.776 242.138 580.049C202.481 570.123 137.609 558.291 53.7708 558.291H48.3628V170.434H53.7708C138.912 170.434 204.841 182.495 245.156 192.614C289.023 203.623 312.422 214.524 313.397 214.982L308.791 224.77C308.561 224.663 285.113 213.765 242.138 203.009C203.338 193.298 140.402 181.762 59.1798 181.268V547.489C141.703 547.989 205.7 559.75 245.156 569.653C289.023 580.663 312.422 591.563 313.397 592.022L308.791 601.811Z" fill="white"/>
<path d="M316.5 222.629H305.683V596.916H316.5V222.629Z" fill="white"/>
<path d="M273.513 357.4C205.322 322.041 90.0748 322.91 88.9188 322.917L88.7998 312.1C111.492 312.181 134.162 313.494 156.712 316.032C207.823 321.711 248.796 332.398 278.493 347.796L273.513 357.4Z" fill="white"/>
<path d="M273.513 426.276C245.43 411.714 204.675 401.133 155.655 395.676C133.496 393.178 111.217 391.882 88.9178 391.794L88.7988 380.978C111.491 381.057 134.161 382.37 156.711 384.909C207.822 390.588 248.795 401.275 278.492 416.673L273.513 426.276Z" fill="white"/>
<path d="M273.513 496.461C245.43 481.899 204.675 471.317 155.655 465.861C133.496 463.363 111.217 462.067 88.9178 461.98L88.7988 451.163C111.491 451.243 134.161 452.556 156.711 455.095C207.822 460.774 248.795 471.461 278.492 486.859L273.513 496.461Z" fill="white"/>
<path d="M273.513 285.918C205.322 250.56 90.0748 251.431 88.9188 251.435L88.7988 240.619C111.491 240.698 134.161 242.011 156.711 244.55C207.822 250.229 248.795 260.916 278.492 276.315L273.513 285.918Z" fill="white"/>
<path d="M348.671 357.4L343.692 347.8C373.392 332.4 414.362 321.715 465.473 316.036C488.022 313.497 510.693 312.184 533.385 312.104L533.265 322.921C510.966 323.007 488.688 324.303 466.529 326.802C417.508 332.254 376.754 342.835 348.671 357.4Z" fill="white"/>
<path d="M348.671 426.276L343.692 416.676C373.392 401.276 414.362 390.591 465.473 384.912C488.022 382.373 510.693 381.061 533.385 380.981L533.265 391.797C510.966 391.883 488.688 393.179 466.529 395.679C417.508 401.133 376.754 411.714 348.671 426.276Z" fill="white"/>
<path d="M348.67 496.462L343.692 486.862C369.13 473.675 403.162 463.88 444.844 457.75L446.418 468.45C405.927 474.4 373.04 483.829 348.67 496.462Z" fill="white"/>
<path d="M348.671 285.918L343.692 276.318C373.392 260.918 414.362 250.232 465.473 244.553C488.022 242.014 510.693 240.702 533.385 240.622L533.265 251.438C510.966 251.525 488.688 252.821 466.529 255.32C417.508 260.775 376.754 271.356 348.671 285.918Z" fill="white"/>
<path d="M688.259 720C686.392 720.005 684.544 719.64 682.819 718.926C681.095 718.212 679.53 717.163 678.214 715.839L583.589 621.214L536.089 700.377C535.124 701.985 533.718 703.283 532.038 704.116C530.357 704.95 528.473 705.284 526.609 705.079C524.745 704.875 522.978 704.14 521.519 702.962C520.059 701.784 518.968 700.212 518.375 698.433L424.66 417.279C424.085 415.551 424.003 413.698 424.422 411.926C424.841 410.155 425.745 408.534 427.032 407.247C428.32 405.96 429.94 405.057 431.712 404.639C433.484 404.22 435.338 404.304 437.065 404.879L718.218 498.597C719.997 499.19 721.57 500.281 722.748 501.74C723.926 503.199 724.661 504.966 724.866 506.831C725.071 508.695 724.736 510.579 723.902 512.259C723.069 513.94 721.77 515.345 720.162 516.31L641 563.8L735.625 658.426C736.945 659.745 737.991 661.311 738.706 663.034C739.42 664.758 739.788 666.605 739.788 668.471C739.788 670.336 739.42 672.183 738.706 673.907C737.991 675.63 736.945 677.196 735.625 678.515L698.3 715.839C696.984 717.162 695.42 718.211 693.696 718.925C691.973 719.639 690.124 720.005 688.259 720V720ZM583.409 609.776C584.694 609.775 585.967 610.029 587.153 610.522C588.34 611.015 589.417 611.739 590.323 612.651L685.863 708.19C686.177 708.505 686.551 708.755 686.962 708.925C687.373 709.095 687.814 709.183 688.259 709.183C688.704 709.183 689.145 709.095 689.556 708.925C689.967 708.755 690.34 708.505 690.655 708.19L727.976 670.869C728.611 670.234 728.968 669.372 728.968 668.474C728.968 667.575 728.611 666.713 727.976 666.078L632.435 570.537C631.381 569.483 630.582 568.203 630.097 566.794C629.612 565.384 629.455 563.883 629.637 562.404C629.819 560.925 630.336 559.507 631.148 558.258C631.96 557.008 633.046 555.96 634.324 555.193L712.713 508.159L435.561 415.775L527.945 692.928L574.979 614.539C575.742 613.258 576.789 612.169 578.039 611.356C579.289 610.543 580.709 610.028 582.19 609.851C582.594 609.801 583.001 609.776 583.409 609.776V609.776Z" fill="white"/>
<path d="M251.061 109.752C249.997 109.752 248.958 109.439 248.071 108.851C247.185 108.263 246.492 107.427 246.078 106.448C245.664 105.468 245.548 104.388 245.745 103.343C245.941 102.298 246.441 101.334 247.183 100.572C255.47 92.0492 265.369 85.2585 276.303 80.5944C287.238 75.9304 298.99 73.486 310.878 73.4034C322.765 73.3208 334.55 75.6015 345.549 80.1131C356.547 84.6247 366.539 91.2772 374.944 99.684C375.455 100.184 375.862 100.781 376.142 101.44C376.421 102.098 376.567 102.806 376.571 103.521C376.575 104.237 376.437 104.946 376.165 105.607C375.893 106.269 375.492 106.87 374.986 107.376C374.48 107.882 373.879 108.282 373.217 108.554C372.555 108.826 371.846 108.964 371.131 108.96C370.415 108.956 369.708 108.81 369.049 108.53C368.391 108.251 367.794 107.844 367.294 107.332C359.902 99.939 351.115 94.0888 341.443 90.1213C331.771 86.1538 321.407 84.1481 310.953 84.2209C300.499 84.2937 290.164 86.4434 280.548 90.5451C270.932 94.6469 262.227 100.619 254.939 108.114C254.435 108.633 253.832 109.045 253.166 109.326C252.5 109.608 251.784 109.753 251.061 109.752V109.752Z" fill="white"/>
<path d="M222.549 87.141C221.483 87.1418 220.44 86.8275 219.552 86.2376C218.664 85.6476 217.97 84.8084 217.558 83.8253C217.145 82.8422 217.033 81.7591 217.234 80.7122C217.435 79.6652 217.941 78.7011 218.689 77.941C230.721 65.6775 245.065 55.9202 260.891 49.2328C276.716 42.5454 293.71 39.0605 310.891 38.9795C328.071 38.8985 345.097 42.223 360.985 48.7609C376.873 55.2988 391.308 64.9205 403.456 77.07C403.967 77.5702 404.375 78.167 404.654 78.8256C404.933 79.4843 405.079 80.1919 405.083 80.9073C405.087 81.6227 404.949 82.3318 404.677 82.9935C404.405 83.6552 404.004 84.2563 403.498 84.7621C402.992 85.268 402.391 85.6684 401.729 85.9402C401.067 86.2121 400.358 86.3499 399.643 86.3458C398.927 86.3417 398.22 86.1957 397.561 85.9163C396.903 85.6369 396.306 85.2296 395.806 84.718C384.669 73.5787 371.434 64.757 356.868 58.7627C342.301 52.7684 326.691 49.7203 310.939 49.7947C295.187 49.8691 279.607 53.0644 265.097 59.196C250.588 65.3277 237.437 74.274 226.406 85.518C225.904 86.0319 225.304 86.4403 224.641 86.719C223.979 86.9977 223.268 87.1412 222.549 87.141V87.141Z" fill="white"/>
<path d="M199.158 57.85C198.093 57.849 197.051 57.5334 196.165 56.9429C195.278 56.3523 194.586 55.5131 194.174 54.5305C193.762 53.5479 193.65 52.4656 193.851 51.4194C194.053 50.3733 194.558 49.4099 195.305 48.65C210.41 33.3162 228.4 21.1236 248.239 12.7748C268.078 4.42597 289.373 0.0861097 310.897 0.00532977C332.42 -0.0754502 353.747 4.10445 373.648 12.3041C393.549 20.5038 411.63 32.5611 426.85 47.781C427.361 48.2812 427.769 48.8779 428.048 49.5365C428.327 50.1951 428.473 50.9026 428.477 51.6181C428.481 52.3335 428.343 53.0426 428.071 53.7043C427.8 54.366 427.399 54.9673 426.893 55.4731C426.387 55.979 425.786 56.3795 425.124 56.6514C424.463 56.9234 423.753 57.0613 423.038 57.0573C422.323 57.0533 421.615 56.9074 420.956 56.6281C420.298 56.3487 419.701 55.9415 419.201 55.43C404.991 41.2197 388.109 29.9622 369.528 22.3064C350.947 14.6507 331.034 10.748 310.938 10.8233C290.842 10.8986 270.959 14.9504 252.436 22.7452C233.913 30.54 217.115 41.9236 203.012 56.24C202.509 56.7511 201.909 57.1568 201.247 57.4332C200.585 57.7097 199.875 57.8514 199.158 57.85V57.85Z" fill="white"/>
<path d="M311.09 162.639C305.974 162.639 300.973 161.122 296.719 158.28C292.466 155.438 289.151 151.398 287.193 146.671C285.235 141.945 284.723 136.744 285.721 131.727C286.719 126.709 289.182 122.1 292.8 118.483C296.417 114.866 301.026 112.402 306.044 111.404C311.061 110.406 316.262 110.918 320.988 112.876C325.715 114.834 329.754 118.149 332.597 122.403C335.439 126.656 336.956 131.657 336.956 136.773C336.947 143.63 334.219 150.204 329.37 155.053C324.521 159.902 317.947 162.63 311.09 162.639V162.639ZM311.09 121.725C308.113 121.725 305.204 122.607 302.729 124.261C300.254 125.914 298.325 128.265 297.186 131.015C296.046 133.764 295.748 136.79 296.329 139.71C296.91 142.629 298.343 145.311 300.448 147.415C302.552 149.52 305.234 150.953 308.153 151.534C311.073 152.115 314.098 151.816 316.848 150.677C319.598 149.538 321.949 147.609 323.602 145.134C325.256 142.659 326.138 139.749 326.138 136.773C326.133 132.783 324.547 128.959 321.725 126.137C318.904 123.316 315.08 121.73 311.09 121.725V121.725Z" fill="white"/>
</svg>
