<svg width="928" height="720" viewBox="0 0 928 720" fill="none" xmlns="http://www.w3.org/2000/svg">
<path d="M750.814 83.98C748.423 83.394 745.931 83.3588 743.525 83.8771C741.119 84.3953 738.862 85.4535 736.925 86.9717C734.988 88.4899 733.421 90.4284 732.342 92.6408C731.264 94.8532 730.702 97.2818 730.7 99.743L730.525 294.821C654.34 312.218 561.559 321.635 463.779 321.635C365.928 321.635 273.073 312.202 196.856 294.781V99.758C196.856 97.2955 196.296 94.8651 195.219 92.6507C194.142 90.4363 192.575 88.4959 190.637 86.976C188.7 85.4562 186.442 84.3968 184.035 83.878C181.627 83.3591 179.134 83.3943 176.742 83.981C62.768 111.938 0 154.448 0 203.681V569.557C0 613.83 49.331 652.024 142.659 680.009C228.658 705.799 342.701 719.999 463.779 719.999C584.857 719.999 698.901 705.799 784.901 680.009C878.229 652.024 927.56 613.83 927.56 569.557V203.682C927.559 154.448 864.791 111.937 750.814 83.98ZM164.366 120.799V286.585C160.175 285.422 156.049 284.232 151.989 283.014C78.279 260.914 32.489 230.514 32.489 203.682C32.488 175.089 83.579 143.327 164.366 120.799ZM895.066 569.557C895.066 596.388 849.275 626.786 775.566 648.889C692.512 673.794 581.779 687.51 463.779 687.51C345.779 687.51 235.046 673.794 151.989 648.889C78.279 626.789 32.489 596.389 32.489 569.557V261.927C56.452 281.765 93.426 299.371 142.659 314.134C228.659 339.922 342.702 354.124 463.779 354.124C584.856 354.124 698.901 339.924 784.901 314.134C834.134 299.371 871.108 281.765 895.071 261.927L895.066 569.557ZM775.569 283.014C771.453 284.248 767.271 285.454 763.022 286.633L763.17 120.793C843.97 143.321 895.07 175.087 895.07 203.682C895.07 230.513 849.279 260.911 775.569 283.014ZM391.856 407.73C400.279 408.13 408.868 408.473 417.383 408.737C417.555 408.742 417.726 408.745 417.897 408.745C422.16 408.741 426.25 407.061 429.286 404.069C432.322 401.076 434.06 397.01 434.125 392.747C434.189 388.485 432.576 384.367 429.633 381.284C426.689 378.2 422.652 376.397 418.391 376.263C410.058 376.004 401.654 375.673 393.413 375.277C389.109 375.071 384.9 376.582 381.711 379.479C378.522 382.376 376.614 386.422 376.408 390.725C376.202 395.029 377.713 399.238 380.61 402.427C383.507 405.616 387.552 407.524 391.856 407.73V407.73ZM288.115 398.864C296.452 399.912 305.01 400.898 313.551 401.795C314.121 401.855 314.693 401.885 315.266 401.886C319.421 401.874 323.413 400.27 326.422 397.404C329.43 394.539 331.227 390.629 331.441 386.48C331.656 382.331 330.273 378.257 327.576 375.096C324.88 371.935 321.074 369.927 316.943 369.486C308.622 368.612 300.286 367.652 292.167 366.632C290.05 366.366 287.902 366.519 285.845 367.084C283.788 367.648 281.862 368.612 280.177 369.92C278.492 371.229 277.081 372.856 276.026 374.71C274.97 376.563 274.29 378.607 274.023 380.724C273.757 382.84 273.911 384.988 274.475 387.046C275.039 389.103 276.003 391.029 277.312 392.714C278.62 394.398 280.248 395.809 282.101 396.865C283.955 397.921 285.998 398.601 288.115 398.867V398.864ZM185.179 380.914C193.361 382.794 201.825 384.614 210.335 386.314C214.56 387.16 218.947 386.294 222.533 383.905C226.119 381.517 228.609 377.802 229.455 373.577C230.301 369.353 229.435 364.965 227.046 361.379C224.658 357.793 220.943 355.303 216.718 354.457C208.504 352.812 200.341 351.057 192.455 349.247C190.37 348.753 188.208 348.676 186.093 349.02C183.978 349.365 181.952 350.125 180.132 351.256C178.312 352.387 176.734 353.867 175.488 355.611C174.243 357.354 173.354 359.327 172.875 361.416C172.395 363.504 172.333 365.667 172.692 367.779C173.052 369.892 173.826 371.912 174.969 373.724C176.113 375.536 177.604 377.104 179.356 378.338C181.108 379.571 183.087 380.446 185.179 380.911V380.914ZM721.743 353.441C713.797 355.08 705.586 356.658 697.343 358.135C695.243 358.511 693.238 359.297 691.442 360.448C689.646 361.599 688.094 363.092 686.875 364.843C685.656 366.594 684.794 368.568 684.338 370.651C683.882 372.735 683.84 374.889 684.216 376.989C684.593 379.088 685.378 381.094 686.529 382.89C687.68 384.686 689.174 386.238 690.925 387.456C692.675 388.675 694.649 389.538 696.733 389.994C698.817 390.45 700.97 390.491 703.07 390.115C711.593 388.59 720.082 386.957 728.303 385.263C732.523 384.394 736.224 381.883 738.594 378.285C740.963 374.686 741.805 370.293 740.935 366.074C740.066 361.854 737.556 358.152 733.957 355.783C730.358 353.414 725.966 352.571 721.746 353.441H721.743ZM84.42 349.787C92.158 352.975 100.366 356.104 108.82 359.087C112.883 360.521 117.349 360.282 121.236 358.422C125.122 356.563 128.111 353.236 129.545 349.173C130.979 345.11 130.74 340.644 128.88 336.757C127.021 332.871 123.694 329.882 119.631 328.448C111.705 325.648 104.024 322.725 96.802 319.748C94.8267 318.919 92.707 318.489 90.5649 318.483C88.4228 318.476 86.3006 318.894 84.3204 319.711C82.3402 320.528 80.5412 321.728 79.0268 323.243C77.5124 324.758 76.3127 326.558 75.4966 328.539C74.6804 330.519 74.2641 332.642 74.2715 334.784C74.2788 336.926 74.7098 339.045 75.5396 341.02C76.3693 342.995 77.5814 344.786 79.1062 346.291C80.631 347.796 82.4382 348.984 84.424 349.787H84.42ZM495.492 409.238C495.592 409.238 495.692 409.238 495.792 409.238C504.3 409.084 512.892 408.858 521.319 408.567C523.461 408.508 525.569 408.025 527.524 407.147C529.478 406.269 531.24 405.014 532.707 403.452C534.174 401.891 535.317 400.055 536.072 398.05C536.827 396.045 537.177 393.91 537.103 391.769C537.029 389.628 536.533 387.522 535.642 385.574C534.751 383.625 533.484 381.872 531.913 380.416C530.342 378.959 528.498 377.827 526.488 377.086C524.478 376.345 522.341 376.009 520.2 376.097C511.945 376.382 503.535 376.603 495.2 376.754C490.911 376.821 486.822 378.581 483.827 381.651C480.831 384.721 479.171 388.851 479.209 393.141C479.247 397.43 480.98 401.53 484.03 404.546C487.08 407.562 491.2 409.25 495.489 409.24L495.492 409.238ZM598.207 403.825C598.691 403.825 599.181 403.804 599.673 403.76C608.224 402.994 616.79 402.145 625.136 401.234C627.257 401.003 629.311 400.356 631.182 399.33C633.053 398.305 634.704 396.921 636.04 395.258C637.376 393.595 638.371 391.684 638.969 389.636C639.567 387.589 639.755 385.443 639.524 383.322C639.293 381.201 638.646 379.147 637.62 377.276C636.595 375.405 635.211 373.754 633.548 372.418C631.885 371.082 629.974 370.087 627.926 369.489C625.878 368.891 623.733 368.703 621.612 368.934C613.475 369.822 605.119 370.65 596.777 371.396C592.611 371.767 588.748 373.731 585.993 376.878C583.239 380.025 581.804 384.114 581.988 388.293C582.173 392.471 583.962 396.418 586.983 399.311C590.004 402.203 594.024 403.819 598.207 403.822V403.825ZM784.689 354.984C785.327 357.02 786.361 358.911 787.731 360.547C789.1 362.183 790.779 363.533 792.672 364.52C794.564 365.506 796.632 366.11 798.758 366.296C800.883 366.482 803.025 366.247 805.06 365.605C813.536 362.939 821.818 360.138 829.676 357.278C833.725 355.805 837.022 352.785 838.844 348.88C840.665 344.976 840.861 340.508 839.388 336.46C837.916 332.411 834.895 329.113 830.991 327.292C827.087 325.47 822.619 325.274 818.57 326.747C811.157 329.447 803.332 332.089 795.311 334.614C793.276 335.254 791.387 336.288 789.752 337.658C788.116 339.029 786.767 340.707 785.781 342.599C784.794 344.49 784.19 346.558 784.003 348.683C783.816 350.808 784.049 352.949 784.689 354.984ZM439.928 266.233H474.369C487.728 266.218 500.535 260.904 509.98 251.458C519.426 242.012 524.739 229.205 524.754 215.846V185.656C524.739 172.297 519.426 159.49 509.981 150.044C500.535 140.598 487.728 135.284 474.369 135.269H439.928C431.111 135.258 422.447 137.575 414.812 141.986V100.093C414.819 93.434 417.468 87.0499 422.176 82.3412C426.885 77.6324 433.269 74.9837 439.928 74.976H474.369C481.028 74.9837 487.412 77.6324 492.121 82.3412C496.829 87.0499 499.478 93.434 499.485 100.093C499.485 103.444 500.816 106.658 503.186 109.027C505.555 111.396 508.769 112.728 512.12 112.728C515.47 112.728 518.684 111.396 521.053 109.027C523.423 106.658 524.754 103.444 524.754 100.093C524.739 86.7345 519.426 73.9272 509.98 64.4811C500.535 55.035 487.728 49.7214 474.369 49.706H439.928C426.569 49.7214 413.762 55.0349 404.316 64.481C394.87 73.9271 389.557 86.7344 389.542 100.093V215.846C389.557 229.205 394.87 242.012 404.316 251.458C413.762 260.904 426.569 266.218 439.928 266.233ZM414.812 185.656C414.819 178.997 417.468 172.612 422.176 167.904C426.885 163.195 433.269 160.546 439.928 160.538H474.369C481.028 160.546 487.412 163.195 492.121 167.904C496.829 172.612 499.478 178.997 499.485 185.656V215.846C499.478 222.505 496.829 228.89 492.121 233.599C487.412 238.307 481.028 240.956 474.369 240.964H439.928C433.269 240.956 426.885 238.307 422.176 233.599C417.468 228.89 414.819 222.505 414.812 215.846V185.656ZM312.77 240.964H281.61C275.904 240.957 270.434 238.688 266.399 234.653C262.364 230.618 260.095 225.148 260.088 219.442C260.088 216.091 258.757 212.878 256.387 210.508C254.018 208.139 250.804 206.808 247.454 206.808C244.103 206.808 240.889 208.139 238.52 210.508C236.15 212.878 234.819 216.091 234.819 219.442C234.833 231.847 239.767 243.741 248.539 252.513C257.311 261.285 269.205 266.219 281.61 266.233H312.77C325.175 266.219 337.068 261.284 345.84 252.512C354.612 243.74 359.546 231.847 359.56 219.442V192.126C359.562 185.718 358.243 179.378 355.687 173.501C353.131 167.625 349.391 162.338 344.702 157.97C349.391 153.602 353.131 148.315 355.687 142.438C358.243 136.562 359.562 130.222 359.56 123.813V96.499C359.546 84.0936 354.612 72.2001 345.84 63.428C337.069 54.6558 325.175 49.7213 312.77 49.707H281.61C269.204 49.721 257.311 54.6554 248.539 63.4276C239.767 72.1998 234.833 84.0934 234.819 96.499C234.819 99.8499 236.15 103.064 238.52 105.433C240.889 107.802 244.103 109.134 247.454 109.134C250.804 109.134 254.018 107.802 256.387 105.433C258.757 103.064 260.088 99.8499 260.088 96.499C260.094 90.793 262.364 85.3225 266.399 81.2877C270.433 77.2529 275.904 74.9834 281.61 74.977H312.77C318.476 74.9834 323.946 77.2529 327.981 81.2877C332.016 85.3226 334.285 90.7931 334.291 96.499V123.814C334.285 129.52 332.015 134.99 327.981 139.025C323.946 143.06 318.476 145.329 312.77 145.336H291.679C288.328 145.336 285.114 146.667 282.745 149.037C280.375 151.406 279.044 154.62 279.044 157.971C279.044 161.322 280.375 164.536 282.745 166.905C285.114 169.275 288.328 170.606 291.679 170.606H312.77C318.476 170.612 323.946 172.882 327.981 176.916C332.015 180.951 334.285 186.421 334.291 192.127V219.443C334.284 225.149 332.015 230.619 327.98 234.653C323.946 238.688 318.476 240.957 312.77 240.964V240.964ZM599.888 266.233H634.326C647.685 266.218 660.492 260.904 669.938 251.458C679.384 242.012 684.697 229.205 684.712 215.846V100.093C684.697 86.7343 679.384 73.9269 669.938 64.4808C660.492 55.0346 647.685 49.7211 634.326 49.706H599.888C586.529 49.7214 573.722 55.0349 564.276 64.4809C554.829 73.927 549.516 86.7342 549.5 100.093V215.846C549.516 229.205 554.829 242.012 564.276 251.458C573.722 260.904 586.529 266.218 599.888 266.233V266.233ZM574.77 100.093C574.778 93.4338 577.427 87.0495 582.135 82.3407C586.844 77.632 593.229 74.9834 599.888 74.976H634.326C640.985 74.9834 647.369 77.6321 652.078 82.3408C656.787 87.0495 659.436 93.4338 659.443 100.093V215.846C659.436 222.505 656.787 228.89 652.078 233.599C647.37 238.307 640.985 240.956 634.326 240.964H599.888C593.229 240.956 586.844 238.308 582.135 233.599C577.426 228.89 574.778 222.505 574.77 215.846V100.093ZM709.364 56.48C714.949 56.48 720.409 54.8238 725.053 51.7208C729.697 48.6178 733.317 44.2073 735.454 39.0472C737.592 33.8871 738.151 28.209 737.061 22.731C735.972 17.253 733.282 12.2211 729.333 8.27167C725.384 4.3222 720.352 1.63252 714.874 0.542758C709.396 -0.547001 703.718 0.0121024 698.558 2.14937C693.397 4.28663 688.987 7.90607 685.884 12.55C682.781 17.1939 681.124 22.6537 681.124 28.239C681.124 35.7288 684.099 42.9119 689.395 48.2081C694.691 53.5042 701.874 56.4797 709.364 56.48V56.48ZM542.747 506.972L418.547 452.272C416.074 451.183 413.369 450.728 410.676 450.948C407.983 451.169 405.388 452.057 403.125 453.533C400.862 455.009 399.003 457.026 397.716 459.402C396.429 461.778 395.755 464.437 395.755 467.139V576.535C395.755 579.237 396.429 581.897 397.716 584.273C399.004 586.649 400.863 588.666 403.127 590.142C405.39 591.618 407.986 592.506 410.68 592.725C413.373 592.945 416.078 592.489 418.551 591.399L542.751 536.699C545.636 535.429 548.089 533.348 549.811 530.708C551.533 528.068 552.45 524.984 552.45 521.833C552.45 518.681 551.533 515.597 549.811 512.957C548.089 510.317 545.636 508.236 542.751 506.966L542.747 506.972ZM428.247 551.631V492.046L495.894 521.838L428.247 551.631ZM621.423 625.131C613.273 626.231 604.954 627.252 596.693 628.176C592.569 628.638 588.778 630.661 586.098 633.829C583.418 636.998 582.052 641.072 582.28 645.216C582.509 649.36 584.315 653.259 587.327 656.113C590.339 658.968 594.33 660.561 598.48 660.567C599.091 660.567 599.701 660.534 600.308 660.467C608.808 659.515 617.366 658.461 625.752 657.333C627.873 657.057 629.919 656.365 631.773 655.296C633.626 654.228 635.25 652.804 636.551 651.106C637.852 649.408 638.805 647.469 639.356 645.402C639.906 643.335 640.042 641.179 639.757 639.059C639.472 636.939 638.771 634.896 637.695 633.047C636.618 631.199 635.187 629.581 633.483 628.287C631.78 626.993 629.837 626.049 627.768 625.507C625.698 624.966 623.542 624.839 621.423 625.133V625.131ZM520.354 634.231C512.122 634.622 503.734 634.937 495.421 635.166C491.159 635.291 487.116 637.086 484.167 640.165C481.217 643.244 479.595 647.359 479.653 651.623C479.71 655.887 481.442 659.957 484.474 662.955C487.506 665.953 491.595 667.639 495.859 667.649C496.011 667.649 496.159 667.649 496.315 667.643C504.843 667.408 513.451 667.085 521.898 666.683C524.029 666.582 526.119 666.062 528.049 665.152C529.978 664.243 531.71 662.963 533.145 661.385C534.58 659.806 535.691 657.961 536.412 655.953C537.134 653.946 537.453 651.816 537.352 649.685C537.251 647.554 536.731 645.464 535.821 643.534C534.912 641.605 533.632 639.873 532.054 638.438C530.475 637.003 528.63 635.892 526.622 635.171C524.615 634.449 522.485 634.13 520.354 634.231V634.231ZM418.796 634.939C410.51 634.662 402.124 634.297 393.872 633.854C391.742 633.74 389.61 634.046 387.598 634.756C385.587 635.465 383.734 636.564 382.147 637.99C380.56 639.415 379.269 641.139 378.349 643.064C377.428 644.988 376.895 647.075 376.781 649.205C376.667 651.335 376.973 653.467 377.683 655.479C378.392 657.491 379.491 659.343 380.917 660.93C382.342 662.517 384.066 663.808 385.991 664.728C387.915 665.649 390.002 666.182 392.132 666.296C400.602 666.751 409.207 667.126 417.71 667.41C417.895 667.416 418.079 667.419 418.262 667.419C422.518 667.41 426.601 665.731 429.632 662.743C432.663 659.755 434.4 655.697 434.47 651.441C434.54 647.186 432.937 643.072 430.006 639.986C427.075 636.9 423.05 635.088 418.796 634.939V634.939ZM121.217 582.573C113.362 579.603 105.751 576.504 98.594 573.363C96.6377 572.487 94.5273 572.006 92.3845 571.949C90.2417 571.892 88.1087 572.26 86.1087 573.031C84.1086 573.802 82.2809 574.962 80.7309 576.442C79.181 577.923 77.9394 579.696 77.0778 581.659C76.2162 583.622 75.7515 585.736 75.7107 587.879C75.6698 590.022 76.0535 592.152 76.8397 594.146C77.6258 596.14 78.7989 597.959 80.2912 599.498C81.7836 601.037 83.5658 602.265 85.535 603.112C93.206 606.48 101.346 609.794 109.728 612.963C111.727 613.735 113.859 614.103 116.001 614.047C118.143 613.992 120.253 613.513 122.209 612.638C124.165 611.763 125.929 610.51 127.399 608.951C128.869 607.392 130.016 605.557 130.773 603.553C131.531 601.548 131.885 599.414 131.814 597.272C131.743 595.13 131.25 593.024 130.362 591.074C129.473 589.124 128.208 587.369 126.639 585.91C125.069 584.451 123.227 583.317 121.217 582.573ZM217.711 610.622C209.542 608.822 201.421 606.903 193.571 604.928C191.502 604.407 189.351 604.3 187.24 604.61C185.13 604.921 183.101 605.645 181.27 606.739C179.439 607.834 177.842 609.279 176.569 610.991C175.297 612.703 174.374 614.649 173.853 616.718C173.332 618.787 173.224 620.938 173.535 623.049C173.846 625.159 174.569 627.188 175.664 629.019C176.759 630.85 178.204 632.447 179.916 633.72C181.628 634.992 183.574 635.915 185.643 636.436C193.798 638.488 202.231 640.477 210.706 642.348C214.913 643.277 219.317 642.497 222.949 640.179C226.58 637.86 229.143 634.195 230.072 629.988C231 625.78 230.22 621.377 227.902 617.745C225.584 614.113 221.918 611.551 217.711 610.622V610.622ZM720.911 606.701C713.029 608.609 704.886 610.456 696.711 612.192C694.611 612.621 692.616 613.462 690.843 614.666C689.069 615.869 687.551 617.412 686.376 619.205C685.201 620.998 684.393 623.006 683.998 625.113C683.603 627.22 683.629 629.384 684.074 631.481C684.519 633.578 685.374 635.566 686.591 637.331C687.808 639.095 689.363 640.602 691.164 641.763C692.966 642.924 694.98 643.717 697.09 644.096C699.2 644.476 701.363 644.434 703.457 643.973C711.932 642.173 720.376 640.259 728.557 638.279C730.642 637.789 732.61 636.891 734.347 635.637C736.084 634.383 737.556 632.798 738.678 630.974C739.8 629.149 740.55 627.12 740.885 625.004C741.22 622.888 741.133 620.727 740.629 618.644C740.125 616.562 739.215 614.6 737.949 612.872C736.684 611.143 735.09 609.681 733.258 608.571C731.425 607.461 729.392 606.724 727.274 606.403C725.155 606.082 722.995 606.184 720.916 606.701H720.911ZM317.579 627.323C309.323 626.344 301.01 625.265 292.879 624.114C288.619 623.523 284.298 624.645 280.864 627.236C277.43 629.826 275.163 633.672 274.561 637.931C273.959 642.19 275.071 646.514 277.652 649.954C280.233 653.395 284.074 655.671 288.331 656.284C296.706 657.468 305.262 658.584 313.759 659.584C315.877 659.835 318.025 659.666 320.078 659.088C322.131 658.509 324.05 657.532 325.726 656.211C327.401 654.891 328.8 653.253 329.843 651.392C330.886 649.531 331.551 647.483 331.802 645.365C332.054 643.246 331.885 641.099 331.306 639.046C330.728 636.992 329.75 635.073 328.43 633.398C327.109 631.722 325.472 630.323 323.611 629.281C321.75 628.238 319.701 627.572 317.583 627.321L317.579 627.323ZM816.385 576.232C809.159 579.261 801.485 582.251 793.585 585.116C791.568 585.834 789.712 586.944 788.125 588.381C786.538 589.819 785.251 591.556 784.338 593.493C783.424 595.429 782.903 597.528 782.804 599.667C782.704 601.806 783.029 603.943 783.758 605.956C784.488 607.97 785.609 609.819 787.055 611.397C788.502 612.976 790.247 614.253 792.189 615.155C794.131 616.057 796.232 616.566 798.372 616.652C800.511 616.739 802.647 616.402 804.656 615.661C813.061 612.614 821.235 609.429 828.95 606.194C832.923 604.528 836.072 601.352 837.703 597.365C839.335 593.377 839.316 588.905 837.65 584.932C835.984 580.959 832.808 577.81 828.821 576.179C824.833 574.547 820.361 574.566 816.388 576.232H816.385ZM286.304 595.132V428.658C286.27 424.372 284.544 420.273 281.501 417.254C278.458 414.235 274.346 412.54 270.06 412.54C265.773 412.54 261.661 414.235 258.618 417.254C255.575 420.273 253.849 424.372 253.815 428.658V595.135C253.798 597.279 254.206 599.405 255.015 601.391C255.824 603.376 257.017 605.182 258.528 606.704C260.038 608.226 261.834 609.434 263.813 610.259C265.793 611.083 267.915 611.508 270.06 611.508C272.204 611.508 274.326 611.083 276.306 610.259C278.285 609.434 280.081 608.226 281.591 606.704C283.102 605.182 284.295 603.376 285.104 601.391C285.913 599.405 286.321 597.279 286.304 595.135V595.132ZM645.673 412.414C641.365 412.414 637.233 414.125 634.186 417.172C631.14 420.218 629.428 424.35 629.428 428.658V595.135C629.411 597.279 629.819 599.405 630.628 601.391C631.437 603.376 632.63 605.182 634.141 606.704C635.651 608.226 637.447 609.434 639.426 610.259C641.406 611.083 643.528 611.508 645.672 611.508C647.817 611.508 649.939 611.083 651.919 610.259C653.898 609.434 655.694 608.226 657.204 606.704C658.715 605.182 659.908 603.376 660.717 601.391C661.526 599.405 661.934 597.279 661.917 595.135V428.658C661.917 424.35 660.206 420.218 657.159 417.172C654.113 414.125 649.981 412.414 645.673 412.414V412.414Z" fill="white"/>
</svg>
