<svg width="998" height="720" viewBox="0 0 998 720" fill="none" xmlns="http://www.w3.org/2000/svg">
<path d="M829.413 244.123C851.951 244.124 873.983 237.442 892.722 224.921C911.462 212.4 926.068 194.603 934.694 173.781C943.319 152.959 945.576 130.047 941.18 107.942C936.783 85.8377 925.93 65.5331 909.993 49.5965C894.057 33.6598 873.752 22.807 851.647 18.4103C829.542 14.0136 806.63 16.2707 785.808 24.896C764.986 33.5213 747.19 48.1274 734.669 66.8673C722.148 85.6072 715.466 107.639 715.467 130.177C715.502 160.387 727.518 189.349 748.879 210.71C770.241 232.072 799.203 244.088 829.413 244.123V244.123ZM829.413 35.753C848.087 35.7516 866.343 41.2879 881.871 51.6617C897.398 62.0355 909.502 76.781 916.649 94.0334C923.797 111.286 925.668 130.27 922.026 148.586C918.384 166.902 909.392 183.726 896.188 196.932C882.984 210.138 866.161 219.131 847.846 222.776C829.53 226.42 810.546 224.551 793.292 217.406C776.039 210.261 761.292 198.159 750.916 182.633C740.54 167.106 735.002 148.851 735.001 130.177C735.03 105.145 744.986 81.1468 762.685 63.4455C780.384 45.7442 804.381 35.7853 829.413 35.753V35.753Z" fill="white"/>
<path d="M978.453 308.42C966.536 296.561 950.404 289.908 933.592 289.92H725.232C716.896 289.904 708.638 291.534 700.933 294.717C693.229 297.9 686.228 302.573 680.334 308.468C674.44 314.363 669.768 321.364 666.586 329.07C663.404 336.775 661.775 345.033 661.793 353.369V539.792C661.792 541.075 662.044 542.345 662.535 543.53C663.025 544.715 663.745 545.792 664.652 546.699C665.559 547.606 666.636 548.326 667.821 548.816C669.006 549.307 670.276 549.559 671.559 549.558H987.285C988.568 549.559 989.838 549.306 991.023 548.816C992.208 548.325 993.285 547.606 994.192 546.699C995.099 545.792 995.818 544.715 996.308 543.53C996.799 542.345 997.051 541.075 997.05 539.792V353.367C997.077 345.017 995.448 336.745 992.255 329.03C989.063 321.315 984.372 314.309 978.453 308.42ZM977.519 530.026H943.358V401.289C943.358 398.699 942.329 396.215 940.498 394.383C938.666 392.552 936.182 391.523 933.592 391.523C931.002 391.523 928.518 392.552 926.686 394.383C924.855 396.215 923.826 398.699 923.826 401.289V530.026H735V401.289C735 398.699 733.971 396.215 732.14 394.383C730.308 392.552 727.824 391.523 725.234 391.523C722.644 391.523 720.16 392.552 718.328 394.383C716.497 396.215 715.468 398.699 715.468 401.289V530.026H681.325V353.367C681.309 347.596 682.434 341.879 684.634 336.544C686.835 331.209 690.068 326.362 694.149 322.281C698.229 318.199 703.075 314.965 708.41 312.763C713.744 310.561 719.461 309.435 725.232 309.45H933.592C939.364 309.435 945.082 310.56 950.418 312.762C955.753 314.963 960.602 318.198 964.683 322.279C968.765 326.36 972.001 331.207 974.203 336.542C976.406 341.877 977.533 347.595 977.519 353.367V530.026Z" fill="white"/>
<path d="M168.589 244.123C191.126 244.124 213.158 237.442 231.898 224.921C250.638 212.4 265.244 194.603 273.87 173.781C282.495 152.959 284.752 130.047 280.355 107.942C275.959 85.8377 265.106 65.5331 249.169 49.5965C233.232 33.6598 212.928 22.807 190.823 18.4103C168.718 14.0136 145.806 16.2707 124.984 24.896C104.162 33.5213 86.3654 48.1274 73.8447 66.8673C61.324 85.6072 54.6416 107.639 54.6426 130.177C54.6772 160.387 66.6934 189.349 88.0549 210.711C109.416 232.072 138.379 244.088 168.589 244.123V244.123ZM168.589 35.753C187.263 35.752 205.518 41.2886 221.046 51.6627C236.573 62.0368 248.676 76.7824 255.823 94.0348C262.971 111.287 264.842 130.272 261.199 148.587C257.557 166.903 248.565 183.727 235.361 196.933C222.157 210.138 205.334 219.132 187.019 222.776C168.703 226.42 149.719 224.551 132.466 217.406C115.212 210.26 100.466 198.159 90.0898 182.633C79.7141 167.106 74.1756 148.851 74.1746 130.177C74.2037 105.145 84.1599 81.1462 101.859 63.4448C119.559 45.7435 143.556 35.7848 168.589 35.753V35.753Z" fill="white"/>
<path d="M326.441 549.558C327.724 549.559 328.994 549.307 330.18 548.816C331.365 548.326 332.442 547.606 333.349 546.699C334.256 545.792 334.975 544.715 335.465 543.53C335.956 542.345 336.208 541.075 336.207 539.792V353.367C336.227 345.03 334.6 336.771 331.418 329.065C328.237 321.359 323.565 314.357 317.671 308.462C311.776 302.566 304.775 297.893 297.069 294.711C289.364 291.528 281.105 289.9 272.768 289.918H64.4083C56.0715 289.903 47.8137 291.534 40.1086 294.718C32.4034 297.901 25.4024 302.574 19.507 308.468C13.6116 314.363 8.93764 321.363 5.75327 329.068C2.56891 336.773 0.936711 345.03 0.950279 353.367V539.792C0.949491 541.075 1.20153 542.345 1.69198 543.53C2.18242 544.715 2.90166 545.792 3.80857 546.699C4.71548 547.606 5.79226 548.325 6.97736 548.816C8.16247 549.306 9.43265 549.559 10.7153 549.558H326.441ZM263 401.289V530.026H74.1743V401.289C74.1743 398.699 73.1454 396.215 71.3139 394.383C69.4824 392.552 66.9984 391.523 64.4083 391.523C61.8182 391.523 59.3342 392.552 57.5027 394.383C55.6712 396.215 54.6423 398.699 54.6423 401.289V530.026H20.4813V353.367C20.455 347.603 21.5728 341.892 23.77 336.563C25.9672 331.235 29.2001 326.395 33.2813 322.325C41.5403 314.077 52.7368 309.446 64.4093 309.45H272.769C278.541 309.433 284.259 310.557 289.594 312.758C294.93 314.96 299.777 318.194 303.858 322.276C307.938 326.357 311.172 331.205 313.372 336.541C315.572 341.877 316.695 347.595 316.676 353.367V530.026H282.534V401.289C282.534 400.006 282.282 398.737 281.791 397.552C281.3 396.367 280.581 395.29 279.674 394.383C278.767 393.477 277.69 392.757 276.506 392.266C275.321 391.776 274.051 391.523 272.768 391.523C271.486 391.523 270.216 391.776 269.031 392.266C267.846 392.757 266.77 393.477 265.863 394.383C264.956 395.29 264.236 396.367 263.746 397.552C263.255 398.737 263.002 400.006 263.002 401.289H263Z" fill="white"/>
<path d="M641.022 624.069C600.077 664.955 546.699 691.067 489.289 698.294C431.878 705.521 373.694 693.454 323.893 663.991L343.966 653.152L265.29 630.976L304.311 702.8L310.946 679.03C364.572 711.748 427.643 725.478 490.017 718.014C552.39 710.549 610.44 682.323 654.831 637.875C655.738 636.968 656.457 635.892 656.948 634.707C657.438 633.523 657.691 632.253 657.691 630.971C657.691 629.688 657.438 628.419 656.948 627.234C656.457 626.049 655.738 624.973 654.831 624.066C653.924 623.159 652.848 622.44 651.663 621.949C650.479 621.459 649.209 621.206 647.927 621.206C646.644 621.206 645.375 621.459 644.19 621.949C643.005 622.44 641.929 623.159 641.022 624.066V624.069Z" fill="white"/>
<path d="M299.6 91.992C302.072 91.994 304.452 91.0563 306.257 89.369C393.769 7.815 525.147 -3.145 624.607 60.652L604.165 70.778L682.011 95.715L645.546 22.556L638.046 46.169C530.861 -24.515 387.888 -13.387 292.946 75.083C291.511 76.4188 290.511 78.1561 290.076 80.0686C289.642 81.981 289.794 83.9798 290.512 85.8047C291.23 87.6296 292.481 89.1959 294.102 90.2995C295.723 91.4031 297.639 91.9929 299.6 91.992Z" fill="white"/>
</svg>
