<svg xmlns="http://www.w3.org/2000/svg" width="764.226" height="720" viewBox="0 0 764.226 720">
  <g id="Grupo_46" data-name="Grupo 46" transform="translate(-257.887)">
    <g id="Grupo_31" data-name="Grupo 31">
      <g id="Grupo_28" data-name="Grupo 28">
        <path id="Caminho_51" data-name="Caminho 51" d="M639.865,526.047a88.777,88.777,0,1,1,88.774-88.776A88.875,88.875,0,0,1,639.865,526.047Zm0-151.626a62.85,62.85,0,1,0,62.847,62.85A62.919,62.919,0,0,0,639.865,374.421Z" fill="#fff"/>
      </g>
      <g id="Grupo_29" data-name="Grupo 29">
        <path id="Caminho_52" data-name="Caminho 52" d="M547.278,591.95H521.351a57.066,57.066,0,0,1,57-57h61.513v25.928H578.352A31.109,31.109,0,0,0,547.278,591.95Z" fill="#fff"/>
      </g>
      <g id="Grupo_30" data-name="Grupo 30">
        <path id="Caminho_53" data-name="Caminho 53" d="M758.384,591.95H732.456a31.11,31.11,0,0,0-31.074-31.074H639.868V534.948h61.514A57.067,57.067,0,0,1,758.384,591.95Z" fill="#fff"/>
      </g>
    </g>
    <g id="Grupo_35" data-name="Grupo 35">
      <g id="Grupo_32" data-name="Grupo 32">
        <path id="Caminho_54" data-name="Caminho 54" d="M867.767,654.1a88.777,88.777,0,1,1,88.774-88.778A88.876,88.876,0,0,1,867.767,654.1Zm0-151.627a62.849,62.849,0,1,0,62.847,62.849A62.92,62.92,0,0,0,867.767,502.471Z" fill="#fff"/>
      </g>
      <g id="Grupo_33" data-name="Grupo 33">
        <path id="Caminho_55" data-name="Caminho 55" d="M775.179,720H749.252a57.066,57.066,0,0,1,57-57h61.513v25.928H806.254A31.11,31.11,0,0,0,775.179,720Z" fill="#fff"/>
      </g>
      <g id="Grupo_34" data-name="Grupo 34">
        <path id="Caminho_56" data-name="Caminho 56" d="M986.285,720H960.358a31.109,31.109,0,0,0-31.074-31.074H867.769V663h61.515A57.066,57.066,0,0,1,986.285,720Z" fill="#fff"/>
      </g>
    </g>
    <g id="Grupo_39" data-name="Grupo 39">
      <g id="Grupo_36" data-name="Grupo 36">
        <path id="Caminho_57" data-name="Caminho 57" d="M412.23,654.1A88.777,88.777,0,1,1,501,565.32,88.877,88.877,0,0,1,412.23,654.1Zm0-151.627a62.849,62.849,0,1,0,62.846,62.849A62.92,62.92,0,0,0,412.23,502.471Z" fill="#fff"/>
      </g>
      <g id="Grupo_37" data-name="Grupo 37">
        <path id="Caminho_58" data-name="Caminho 58" d="M319.642,720H293.715a57.066,57.066,0,0,1,57-57H412.23v25.928H350.716A31.11,31.11,0,0,0,319.642,720Z" fill="#fff"/>
      </g>
      <g id="Grupo_38" data-name="Grupo 38">
        <path id="Caminho_59" data-name="Caminho 59" d="M530.747,720H504.82a31.109,31.109,0,0,0-31.074-31.074H412.232V663h61.514A57.066,57.066,0,0,1,530.747,720Z" fill="#fff"/>
      </g>
    </g>
    <g id="Grupo_45" data-name="Grupo 45">
      <g id="Grupo_40" data-name="Grupo 40">
        <path id="Caminho_60" data-name="Caminho 60" d="M724.772,282.317a12.949,12.949,0,0,1-6.031-1.489L641.467,240.2l-77.274,40.625a12.964,12.964,0,0,1-18.809-13.666l14.757-86.045-62.515-60.939a12.964,12.964,0,0,1,7.184-22.112l86.4-12.553L629.842,7.226a12.963,12.963,0,0,1,23.249,0l38.638,78.287,86.394,12.553a12.964,12.964,0,0,1,7.185,22.112l-62.516,60.939,14.758,86.045a12.964,12.964,0,0,1-12.778,15.155ZM534.533,119.947l48.586,47.361a12.96,12.96,0,0,1,3.728,11.475l-11.469,66.873,60.056-31.574a12.961,12.961,0,0,1,12.065,0l60.057,31.574-11.47-66.873a12.962,12.962,0,0,1,3.728-11.475L748.4,119.947l-67.144-9.756a12.965,12.965,0,0,1-9.761-7.091L641.467,42.255,611.438,103.1a12.963,12.963,0,0,1-9.761,7.091Z" fill="#fff"/>
      </g>
      <g id="Grupo_41" data-name="Grupo 41">
        <path id="Caminho_61" data-name="Caminho 61" d="M973.842,467.269a12.95,12.95,0,0,1-6.031-1.489l-51.093-26.861L865.625,465.78a12.963,12.963,0,0,1-18.809-13.666L857.725,388.5l25.554,4.384-6.469,37.721,33.876-17.81a12.959,12.959,0,0,1,12.064,0l33.876,17.81-6.469-37.721a12.96,12.96,0,0,1,3.728-11.475l27.4-26.714-37.873-5.5a12.964,12.964,0,0,1-9.761-7.092l-16.938-34.32-6.861,13.9-23.25-11.474,18.486-37.457a12.964,12.964,0,0,1,23.25,0l25.547,51.763,57.123,8.3a12.964,12.964,0,0,1,7.185,22.112l-41.335,40.292,9.757,56.893a12.964,12.964,0,0,1-12.778,15.155Z" fill="#fff"/>
      </g>
      <g id="Grupo_42" data-name="Grupo 42">
        <path id="Caminho_62" data-name="Caminho 62" d="M306.158,467.269a12.964,12.964,0,0,1-12.779-15.155l9.758-56.893L261.8,354.929a12.964,12.964,0,0,1,7.185-22.112l57.123-8.3,25.547-51.763a12.966,12.966,0,0,1,11.625-7.226h0a12.966,12.966,0,0,1,11.625,7.226l18.486,37.457-23.25,11.474-6.861-13.9L346.344,342.1a12.964,12.964,0,0,1-9.761,7.092l-37.873,5.5,27.4,26.714a12.96,12.96,0,0,1,3.728,11.475l-6.47,37.721L357.25,412.8a12.956,12.956,0,0,1,12.064,0l33.876,17.81-6.47-37.721,25.554-4.384,10.91,63.611a12.963,12.963,0,0,1-18.809,13.666l-51.093-26.861L312.189,465.78A12.952,12.952,0,0,1,306.158,467.269Z" fill="#fff"/>
      </g>
      <g id="Grupo_43" data-name="Grupo 43">
        <path id="Caminho_63" data-name="Caminho 63" d="M868.234,363.449a12.965,12.965,0,0,1-6.031-1.489l-58.14-30.567-58.14,30.567a12.964,12.964,0,0,1-18.809-13.667l7.273-42.4,25.554,4.384-2.833,16.515,40.922-21.514a12.96,12.96,0,0,1,12.065,0l40.923,21.514L843.2,281.22a12.965,12.965,0,0,1,3.728-11.475l33.107-32.271-45.752-6.648a12.966,12.966,0,0,1-9.761-7.092l-20.461-41.459L783.6,223.734a12.966,12.966,0,0,1-9.761,7.092l-18.562,2.7-3.729-25.658,11.818-1.717,29.07-58.9a12.964,12.964,0,0,1,23.25,0l29.07,58.9,65,9.445a12.963,12.963,0,0,1,7.184,22.112l-47.036,45.849,11.1,64.739a12.964,12.964,0,0,1-12.778,15.156Z" fill="#fff"/>
      </g>
      <g id="Grupo_44" data-name="Grupo 44">
        <path id="Caminho_64" data-name="Caminho 64" d="M540.892,363.449a12.965,12.965,0,0,1-6.031-1.489l-58.14-30.567-58.14,30.567a12.964,12.964,0,0,1-18.809-13.667l11.1-64.739L363.84,237.705a12.963,12.963,0,0,1,7.184-22.112l65-9.445,29.07-58.9a12.964,12.964,0,0,1,23.25,0l29.07,58.9,11.818,1.717-3.729,25.658-18.562-2.7a12.966,12.966,0,0,1-9.761-7.092l-20.461-41.459L456.26,223.734a12.966,12.966,0,0,1-9.761,7.092l-45.752,6.648,33.106,32.271a12.96,12.96,0,0,1,3.728,11.475l-7.815,45.567,40.922-21.514a12.96,12.96,0,0,1,12.065,0l40.923,21.514-2.832-16.515,25.553-4.384,7.273,42.4a12.964,12.964,0,0,1-12.778,15.156Z" fill="#fff"/>
      </g>
    </g>
  </g>
</svg>
