<svg width="490" height="720" viewBox="0 0 490 720" fill="none" xmlns="http://www.w3.org/2000/svg">
<path d="M461.629 300.664H28.3762C13.0502 300.664 0.576172 285.918 0.576172 267.794C0.576172 249.67 13.0452 234.923 28.3762 234.923H461.629C477.214 234.923 489.419 249.357 489.419 267.794C489.419 286.231 477.214 300.664 461.629 300.664ZM28.3762 256.964C26.0842 256.964 22.6232 261.28 22.6232 267.792C22.6232 274.304 26.0842 278.619 28.3762 278.619H461.629C463.916 278.619 467.377 274.303 467.377 267.792C467.377 261.281 463.916 256.964 461.629 256.964H28.3762Z" fill="white"/>
<path d="M209.361 720C207.858 720.005 206.37 719.699 204.991 719.1C203.016 718.247 201.333 716.835 200.151 715.037C198.969 713.239 198.34 711.135 198.34 708.983V523.694C198.344 504.461 191.594 485.838 179.268 471.074L57.651 325.386C56.7238 324.275 56.0245 322.992 55.593 321.611C55.1616 320.23 55.0064 318.777 55.1363 317.336C55.2663 315.895 55.6788 314.493 56.3504 313.211C57.022 311.93 57.9395 310.793 59.0505 309.866C60.1615 308.938 61.4442 308.239 62.8254 307.808C64.2066 307.376 65.6593 307.221 67.1006 307.351C68.5418 307.481 69.9433 307.893 71.2251 308.565C72.5068 309.237 73.6438 310.154 74.571 311.265L196.187 456.953C211.83 475.674 220.396 499.298 220.387 523.694V683.471L269.623 637.136V523.694C269.619 499.298 278.184 475.676 293.823 456.953L415.434 311.265C417.307 309.021 419.994 307.613 422.904 307.351C425.815 307.088 428.711 307.993 430.954 309.866C433.198 311.738 434.606 314.425 434.869 317.336C435.131 320.247 434.227 323.142 432.354 325.386L310.738 471.074C298.415 485.84 291.663 504.461 291.66 523.694V641.894C291.659 643.398 291.351 644.885 290.756 646.266C290.16 647.646 289.288 648.891 288.195 649.923L216.917 717.009C214.87 718.931 212.168 720 209.361 720Z" fill="white"/>
<path d="M66.1112 171.411C58.5595 171.411 51.1775 169.171 44.8987 164.976C38.6199 160.78 33.7263 154.816 30.8367 147.839C27.9472 140.862 27.1916 133.185 28.6653 125.779C30.139 118.372 33.776 111.569 39.1163 106.23C44.4565 100.89 51.2602 97.2545 58.6669 95.782C66.0735 94.3094 73.7506 95.0663 80.7271 97.9569C87.7036 100.848 93.6663 105.742 97.861 112.022C102.056 118.301 104.294 125.683 104.293 133.235C104.281 143.357 100.254 153.061 93.0964 160.218C85.9383 167.375 76.2334 171.401 66.1112 171.411ZM66.1112 117.09C62.9191 117.09 59.7987 118.036 57.1445 119.809C54.4903 121.582 52.4214 124.103 51.1995 127.052C49.9776 130.001 49.6576 133.246 50.2798 136.376C50.902 139.507 52.4387 142.383 54.6954 144.641C56.952 146.898 59.8274 148.436 62.958 149.059C66.0885 149.683 69.3336 149.364 72.283 148.143C75.2323 146.922 77.7534 144.854 79.5276 142.201C81.3017 139.547 82.2492 136.427 82.2502 133.235C82.2462 128.955 80.5448 124.852 77.5191 121.825C74.4935 118.799 70.3908 117.096 66.1112 117.09V117.09Z" fill="white"/>
<path d="M182.717 171.411C175.165 171.411 167.784 169.171 161.505 164.975C155.226 160.779 150.333 154.816 147.443 147.839C144.554 140.862 143.799 133.185 145.272 125.778C146.746 118.372 150.383 111.569 155.724 106.229C161.064 100.89 167.867 97.2544 175.274 95.7819C182.681 94.3094 190.358 95.0663 197.334 97.957C204.311 100.848 210.273 105.742 214.468 112.022C218.663 118.301 220.901 125.683 220.9 133.235C220.888 143.357 216.861 153.062 209.703 160.219C202.545 167.376 192.84 171.401 182.717 171.411V171.411ZM182.717 117.09C179.525 117.09 176.405 118.036 173.751 119.81C171.097 121.583 169.028 124.103 167.806 127.052C166.584 130.001 166.265 133.246 166.887 136.377C167.509 139.508 169.046 142.384 171.303 144.641C173.559 146.898 176.435 148.436 179.565 149.059C182.696 149.683 185.941 149.364 188.89 148.143C191.839 146.922 194.36 144.854 196.135 142.201C197.909 139.547 198.856 136.427 198.857 133.235C198.853 128.955 197.152 124.852 194.126 121.825C191.1 118.798 186.997 117.095 182.717 117.09V117.09Z" fill="white"/>
<path d="M245 76.363C237.449 76.363 230.067 74.1239 223.789 69.9288C217.51 65.7336 212.616 59.7709 209.726 52.7946C206.836 45.8183 206.08 38.1417 207.553 30.7355C209.025 23.3292 212.661 16.526 218 11.1861C223.339 5.84613 230.142 2.20927 237.548 0.73537C244.954 -0.73853 252.631 0.0167255 259.607 2.90564C266.584 5.79454 272.548 10.6874 276.744 16.9654C280.94 23.2435 283.18 30.6248 283.181 38.176C283.17 48.2993 279.144 58.0048 271.986 65.1636C264.829 72.3224 255.124 76.35 245 76.363V76.363ZM245 22.042C241.808 22.042 238.688 22.9887 236.033 24.7623C233.379 26.5359 231.311 29.0567 230.089 32.006C228.868 34.9553 228.549 38.2006 229.172 41.3314C229.795 44.4622 231.333 47.3379 233.59 49.5948C235.848 51.8516 238.724 53.3883 241.855 54.0105C244.986 54.6327 248.231 54.3123 251.18 53.0901C254.129 51.8678 256.649 49.7984 258.422 47.1437C260.195 44.489 261.14 41.3682 261.139 38.176C261.135 33.8975 259.433 29.7956 256.407 26.7707C253.381 23.7459 249.279 22.0452 245 22.042V22.042Z" fill="white"/>
<path d="M299.324 198.577C291.773 198.577 284.391 196.338 278.112 192.143C271.833 187.948 266.939 181.985 264.048 175.008C261.158 168.032 260.402 160.355 261.874 152.949C263.347 145.542 266.983 138.739 272.322 133.398C277.662 128.058 284.464 124.421 291.871 122.947C299.277 121.473 306.954 122.229 313.931 125.118C320.908 128.007 326.872 132.9 331.068 139.178C335.264 145.457 337.504 152.838 337.505 160.39C337.494 170.513 333.467 180.219 326.31 187.377C319.152 194.536 309.447 198.564 299.324 198.577V198.577ZM299.324 144.256C296.132 144.256 293.011 145.202 290.357 146.976C287.703 148.749 285.634 151.27 284.412 154.219C283.191 157.169 282.871 160.414 283.494 163.545C284.117 166.676 285.655 169.551 287.913 171.808C290.17 174.065 293.046 175.602 296.177 176.224C299.308 176.847 302.554 176.526 305.503 175.304C308.452 174.082 310.972 172.013 312.745 169.358C314.517 166.703 315.463 163.582 315.462 160.39C315.458 156.112 313.756 152.01 310.73 148.985C307.705 145.96 303.602 144.259 299.324 144.256V144.256Z" fill="white"/>
<path d="M396.734 130.684C389.183 130.684 381.801 128.445 375.522 124.249C369.243 120.054 364.349 114.091 361.459 107.114C358.569 100.137 357.813 92.4603 359.286 85.0538C360.759 77.6473 364.395 70.8439 369.735 65.504C375.074 60.164 381.878 56.5274 389.284 55.0539C396.691 53.5804 404.368 54.3363 411.344 57.2259C418.321 60.1155 424.285 65.009 428.48 71.2878C432.676 77.5665 434.916 84.9484 434.916 92.5C434.904 102.623 430.877 112.328 423.719 119.486C416.562 126.644 406.857 130.671 396.734 130.684V130.684ZM396.734 76.363C393.542 76.363 390.422 77.3096 387.768 79.0831C385.114 80.8565 383.045 83.3772 381.824 86.3263C380.602 89.2755 380.283 92.5206 380.906 95.6513C381.528 98.782 383.066 101.658 385.323 103.915C387.58 106.172 390.456 107.709 393.587 108.331C396.718 108.954 399.963 108.634 402.912 107.412C405.861 106.19 408.381 104.121 410.154 101.467C411.927 98.8126 412.874 95.6921 412.873 92.5C412.87 88.221 411.168 84.1183 408.142 81.0928C405.116 78.0673 401.013 76.3662 396.734 76.363V76.363Z" fill="white"/>
</svg>
