<svg width="764" height="720" viewBox="0 0 764 720" fill="none" xmlns="http://www.w3.org/2000/svg">
<path d="M750.96 720C748.219 720.001 745.559 719.068 743.418 717.355L693.2 677.181C672.544 660.654 643.98 658.459 620.429 671.581C579.407 694.379 533.249 706.34 486.317 706.334H437.608C361.447 706.334 290.542 675.975 237.953 620.851C235.744 618.535 234.545 615.436 234.62 612.235C234.695 609.035 236.039 605.996 238.355 603.786C240.672 601.576 243.771 600.377 246.971 600.453C250.171 600.528 253.211 601.872 255.42 604.188C278.851 628.943 307.105 648.637 338.439 662.054C369.773 675.471 403.523 682.327 437.608 682.2H486.317C529.135 682.208 571.248 671.297 608.675 650.5C640.831 632.578 679.929 635.647 708.282 658.33L738.814 682.756L738.074 427.911C738.074 360.819 711.907 298.072 664.393 251.196C662.145 248.941 660.879 245.889 660.871 242.705C660.863 239.521 662.113 236.462 664.349 234.196C666.585 231.929 669.627 230.638 672.811 230.603C675.995 230.569 679.063 231.794 681.348 234.011C733.496 285.459 762.215 354.311 762.215 427.877L763.029 707.895C763.034 709.483 762.725 711.056 762.12 712.524C761.516 713.993 760.628 715.327 759.507 716.452C758.385 717.576 757.053 718.468 755.587 719.077C754.12 719.686 752.548 720 750.96 720V720Z" fill="white"/>
<path d="M13.0402 597.9C11.4528 597.9 9.88092 597.586 8.41474 596.978C6.94855 596.369 5.61683 595.477 4.49576 594.354C3.3747 593.23 2.48633 591.896 1.88154 590.428C1.27674 588.96 0.967412 587.387 0.971226 585.8L1.83423 288.963C1.84123 211.19 32.2042 138.414 87.3342 84.025C142.254 29.84 215.488 0 293.546 0H345.174C506.024 0 636.885 130.861 636.885 291.711C636.885 452.561 506.022 583.424 345.172 583.424H293.546C243.924 583.43 195.12 570.784 151.746 546.68C126.525 532.622 95.9352 534.98 73.8122 552.68L20.5832 595.262C18.4415 596.973 15.7812 597.903 13.0402 597.9V597.9ZM293.546 24.141C221.876 24.141 154.662 51.512 104.286 101.211C53.7862 151.034 25.9752 217.724 25.9752 288.997V289.032L25.1862 560.662L58.7292 533.826C88.5472 509.971 129.671 506.737 163.498 525.594C203.279 547.697 248.038 559.292 293.546 559.283H345.172C492.712 559.283 612.744 439.251 612.744 291.711C612.744 144.171 492.712 24.141 345.174 24.141H293.546Z" fill="white"/>
<path d="M317.861 491.114C211.276 491.114 124.561 404.402 124.561 297.814C124.561 191.226 211.273 104.514 317.861 104.514C424.449 104.514 511.156 191.227 511.156 297.814C511.156 404.401 424.444 491.114 317.861 491.114ZM317.861 128.664C224.588 128.664 148.705 204.547 148.705 297.819C148.705 391.091 224.588 466.973 317.861 466.973C411.134 466.973 487.014 391.091 487.014 297.819C487.014 204.547 411.133 128.664 317.861 128.664Z" fill="white"/>
<path d="M317.861 491.114C316.276 491.114 314.706 490.802 313.242 490.195C311.777 489.589 310.446 488.7 309.325 487.579C308.204 486.458 307.315 485.127 306.709 483.663C306.102 482.198 305.79 480.628 305.79 479.043V116.593C305.776 114.999 306.077 113.417 306.677 111.94C307.277 110.463 308.164 109.119 309.286 107.987C310.409 106.854 311.744 105.955 313.216 105.342C314.688 104.728 316.266 104.412 317.861 104.412C319.455 104.412 321.034 104.728 322.505 105.342C323.977 105.955 325.313 106.854 326.435 107.987C327.557 109.119 328.444 110.463 329.044 111.94C329.644 113.417 329.946 114.999 329.931 116.593V479.043C329.931 480.628 329.619 482.198 329.013 483.662C328.406 485.127 327.517 486.458 326.396 487.579C325.276 488.7 323.945 489.589 322.48 490.195C321.016 490.802 319.446 491.114 317.861 491.114Z" fill="white"/>
<path d="M499.085 309.89H136.635C133.434 309.89 130.363 308.618 128.099 306.354C125.836 304.091 124.564 301.02 124.564 297.819C124.564 294.618 125.836 291.547 128.099 289.284C130.363 287.02 133.434 285.748 136.635 285.748H499.085C502.286 285.748 505.357 287.02 507.62 289.284C509.884 291.547 511.156 294.618 511.156 297.819C511.156 301.02 509.884 304.091 507.62 306.354C505.357 308.618 502.286 309.89 499.085 309.89V309.89Z" fill="white"/>
<path d="M266.564 480.241C264.428 480.244 262.33 479.679 260.483 478.605C258.637 477.532 257.109 475.987 256.055 474.129C201.588 378.189 204.488 286.629 216.511 226.712C229.527 161.859 255.211 119.983 256.297 118.232C257.997 115.54 260.692 113.628 263.795 112.914C266.898 112.2 270.158 112.741 272.864 114.419C275.57 116.097 277.504 118.776 278.244 121.873C278.983 124.97 278.469 128.234 276.814 130.954C276.557 131.372 252.041 171.554 240 232.374C223.969 313.341 236.434 390.674 277.05 462.209C278.092 464.045 278.634 466.121 278.623 468.232C278.612 470.342 278.048 472.413 276.987 474.237C275.926 476.062 274.405 477.576 272.576 478.629C270.747 479.683 268.674 480.239 266.564 480.241V480.241Z" fill="white"/>
<path d="M320.88 227.764C301.295 227.756 281.744 226.121 262.429 222.877C209.778 214.032 175.691 196.531 174.268 195.791C171.455 194.3 169.345 191.759 168.397 188.72C167.449 185.681 167.74 182.39 169.207 179.565C170.673 176.739 173.197 174.607 176.227 173.633C179.258 172.659 182.551 172.922 185.389 174.364C185.889 174.622 218.295 191.112 267.298 199.214C312.253 206.647 380.934 208.336 452.811 174.178C455.695 172.85 458.987 172.712 461.973 173.794C464.958 174.876 467.397 177.091 468.76 179.959C470.124 182.827 470.302 186.117 469.257 189.115C468.211 192.114 466.026 194.58 463.175 195.978C418.71 217.062 370.09 227.923 320.88 227.764V227.764Z" fill="white"/>
<path d="M179.841 423.817C177.1 423.819 174.44 422.888 172.299 421.177C170.157 419.467 168.662 417.078 168.058 414.405C167.454 411.732 167.778 408.932 168.976 406.467C170.174 404.002 172.175 402.019 174.651 400.842C252.546 363.826 326.813 365.785 375.397 373.942C428.047 382.787 462.134 400.288 463.56 401.028C464.967 401.758 466.216 402.759 467.236 403.972C468.257 405.185 469.028 406.587 469.506 408.098C469.985 409.61 470.161 411.2 470.025 412.78C469.888 414.359 469.442 415.896 468.712 417.303C467.981 418.71 466.981 419.959 465.768 420.98C464.555 422 463.153 422.771 461.641 423.25C460.13 423.728 458.539 423.904 456.96 423.768C455.381 423.631 453.844 423.185 452.437 422.455C451.937 422.197 419.53 405.707 370.53 397.605C325.571 390.171 256.895 388.481 185.015 422.642C183.399 423.413 181.631 423.815 179.841 423.817V423.817Z" fill="white"/>
<path d="M370.877 477.418C368.758 477.416 366.676 476.856 364.842 475.795C363.008 474.734 361.485 473.208 360.427 471.372C359.37 469.536 358.814 467.454 358.816 465.335C358.818 463.215 359.378 461.134 360.439 459.3C401 389.185 413.457 313.4 397.453 234.055C385.425 174.417 360.925 135.015 360.68 134.624C358.97 131.918 358.405 128.643 359.109 125.52C359.814 122.397 361.73 119.682 364.436 117.973C367.143 116.263 370.417 115.698 373.54 116.402C376.663 117.107 379.378 119.023 381.088 121.729C382.178 123.45 407.888 164.594 420.92 228.305C432.959 287.176 435.864 377.136 381.337 471.391C380.276 473.225 378.751 474.748 376.915 475.806C375.078 476.864 372.996 477.42 370.877 477.418V477.418Z" fill="white"/>
</svg>
