<svg width="674" height="720" viewBox="0 0 674 720" fill="none" xmlns="http://www.w3.org/2000/svg">
<path d="M595.485 89.641C494.64 0 387.106 0 346.624 0C324.765 0 273.413 7.908 221.541 29.695C176.165 48.752 115.948 84.695 86.7635 147.668C86.5941 148.033 86.4438 148.406 86.3125 148.786C85.7335 150.466 72.1265 190.224 72.1265 216.279C72.1265 223.516 72.6775 230.849 73.2095 237.942C74.4595 254.574 75.6395 270.285 69.6255 280.81C58.4735 300.325 32.2795 337.51 21.0585 346.489C14.5895 351.665 -0.398544 365.675 0.151456 383.948C0.382456 391.662 3.59246 402.927 17.5655 412.79C26.6735 419.22 34.2944 423.702 39.8604 426.974C43.1194 428.891 46.7175 431.007 48.6295 432.439C47.5785 434.971 45.4195 438.89 44.0025 441.462C38.3855 451.654 32.5764 462.195 39.2924 471.148C42.0374 474.807 47.6255 479.009 54.1385 482.584C48.6085 488.364 48.2194 492.451 48.0384 494.299C47.7973 496.73 48.1762 499.183 49.1398 501.428C50.1033 503.673 51.6201 505.637 53.5485 507.137L54.1345 507.606C65.8135 516.925 71.0945 523.998 69.8345 528.627C69.4835 529.916 68.9885 531.527 68.4155 533.408C63.3575 549.985 53.9415 580.841 66.9845 603.12C73.0645 613.506 82.9364 620.258 96.3264 623.186C141.32 633.028 233.56 618.52 237.466 617.897C238.042 617.806 238.611 617.673 239.166 617.497C241.639 616.718 254.181 613.411 258.286 625.041C266.114 647.221 283.486 719.276 283.665 720.002L295.176 717.23L306.681 714.46C305.957 711.451 288.843 640.486 280.611 617.16C272.037 592.873 247.811 590.366 232.976 594.636C224.07 596.006 140.064 608.522 101.385 600.059C94.6235 598.58 90.0545 595.67 87.4135 591.159C79.6135 577.831 87.3425 552.494 91.0575 540.318C91.7125 538.174 92.2725 536.329 92.6745 534.857C97.3145 517.844 85.4334 503.668 76.0424 495.109C79.0553 493.032 82.1844 491.129 85.4145 489.409C87.754 488.176 89.6133 486.195 90.6959 483.783C91.7784 481.37 92.0219 478.664 91.3874 476.097C90.7528 473.53 89.2769 471.249 87.1949 469.618C85.113 467.987 82.545 467.101 79.9005 467.1C75.7115 467.1 66.4005 462.711 61.2945 459.358C62.3345 457.242 63.7364 454.697 64.7354 452.886C69.4704 444.293 73.9435 436.176 72.6215 428.251C70.8715 417.745 62.4815 412.811 51.8595 406.565C46.3595 403.332 39.5195 399.309 31.2165 393.448C26.4055 390.048 23.9165 386.616 23.8165 383.235C23.6625 378.113 28.3855 370.945 35.8495 364.974C51.5095 352.446 79.5495 311.168 90.1815 292.553C99.7915 275.736 98.2815 255.62 96.8195 236.166C96.2955 229.203 95.8025 222.626 95.8025 216.277C95.8025 195.677 106.919 161.79 108.508 157.054C155.586 56.532 301.521 23.675 346.624 23.675C388.224 23.675 485.639 23.675 579.757 107.336C629.035 151.136 644.4 211.722 648.613 254.836C653.696 306.85 644.422 347.12 639.699 355.15C634.526 363.95 618.945 384.639 602.45 406.55C583.034 432.338 561.028 461.565 547.877 482.022C522.047 522.204 540.468 559.572 544.391 566.609L589.014 684.73L590.087 687.57L612.234 679.204L566.2 557.345C565.939 556.665 565.62 556.01 565.245 555.385C564.529 554.185 547.931 525.712 567.791 494.818C580.467 475.099 602.191 446.243 621.361 420.784C639.008 397.346 654.247 377.105 660.104 367.149C676.927 338.551 696.988 179.866 595.485 89.641Z" fill="white"/>
<path d="M507.096 129.148C492.035 111.488 471.996 96.848 449.157 86.819C430.033 78.5298 409.574 73.7515 388.757 72.713C388.043 72.5626 387.317 72.4783 386.588 72.461C384.411 72.407 382.233 72.407 380.056 72.428C377.879 72.407 375.7 72.408 373.523 72.461C372.805 72.4783 372.09 72.562 371.387 72.711C350.559 73.7469 330.088 78.5259 310.955 86.819C288.112 96.851 268.077 111.488 253.017 129.148C223.523 163.735 211.358 204.548 217.841 247.185C223.471 284.218 243.349 321.485 273.841 352.203C297.913 384.519 300.846 404.845 302.991 419.714C303.421 422.686 303.825 425.494 304.357 428.248C304.583 429.353 304.966 430.42 305.496 431.416C305.516 431.521 305.525 431.627 305.549 431.731C305.619 432.042 312.588 463.022 312.588 480.341C312.588 496.265 324.788 510.288 340.458 518.821V537.768C340.459 539.323 340.765 540.862 341.361 542.298C341.956 543.734 342.829 545.038 343.929 546.137C345.028 547.236 346.334 548.107 347.77 548.701C349.207 549.295 350.746 549.601 352.301 549.6H405.294C408.433 549.6 411.444 548.353 413.664 546.133C415.884 543.913 417.131 540.902 417.131 537.763V520.253C434.114 511.915 447.77 497.191 447.77 480.341C447.77 463.056 454.74 432.041 454.811 431.73C454.891 431.375 454.942 431.019 454.989 430.662C455.333 429.888 455.591 429.078 455.76 428.248C456.292 425.494 456.697 422.686 457.126 419.714C459.271 404.845 462.205 384.519 486.276 352.203C516.769 321.483 536.645 284.218 542.276 247.185C548.754 204.551 536.591 163.735 507.096 129.148ZM412.482 495.576C405.318 500.354 395.969 503.832 387.776 503.832H372.576C363.857 503.832 353.827 499.893 346.518 494.638C340.456 490.28 336.264 485.019 336.264 480.338C336.264 468.598 333.728 452.491 331.58 440.951H428.78C426.63 452.491 424.094 468.598 424.094 480.338C424.091 485.36 419.267 491.051 412.482 495.576ZM363.414 355.806C362.651 343.975 361.706 333.606 360.614 324.495H396.964C395.877 333.595 394.931 343.976 394.164 355.807C392.708 378.375 392.35 399.907 392.308 414.171H365.258C365.227 399.906 364.868 378.374 363.414 355.806V355.806ZM467.824 337.341C440.874 373.273 436.424 397.669 434.003 414.169H416.001C416.046 399.976 416.401 378.415 417.865 356.297C418.799 342.115 419.994 330.457 421.311 320.882C441.822 314.447 458.701 300.234 461.398 284.744C462.263 279.774 463.298 262.955 440.24 255.172C436.886 253.991 433.291 253.658 429.777 254.204C426.263 254.75 422.939 256.157 420.101 258.3C413.613 263.061 406.201 272.574 400.624 300.775C399.551 300.825 398.467 300.841 397.382 300.821H397.155H360.255H360.071C359.025 300.837 357.99 300.821 356.959 300.769C351.382 272.569 343.97 263.059 337.482 258.298C334.644 256.155 331.32 254.749 327.807 254.203C324.293 253.657 320.699 253.989 317.345 255.169C294.323 262.942 295.323 279.729 296.176 284.689C298.842 300.164 315.737 314.41 336.276 320.864C337.589 330.409 338.781 342.027 339.716 356.152C341.18 378.3 341.541 399.935 341.587 414.167H326.111C323.69 397.667 319.24 373.267 292.29 337.339C291.953 336.891 291.586 336.467 291.19 336.071C245.501 290.38 212.801 212.794 271.032 144.51C283.787 129.553 300.885 117.098 320.476 108.494C337.543 101.175 355.802 97.0309 374.357 96.265C374.86 96.2419 375.361 96.1861 375.857 96.098C377.211 96.081 378.569 96.088 379.927 96.098C380.011 96.098 380.096 96.098 380.18 96.098C381.532 96.084 382.883 96.084 384.233 96.098C384.736 96.1858 385.243 96.2416 385.753 96.265C404.307 97.0308 422.566 101.175 439.633 108.494C459.225 117.094 476.323 129.553 489.078 144.51C547.309 212.794 514.612 290.38 468.92 336.073C468.525 336.469 468.159 336.893 467.824 337.341V337.341ZM426.963 292.418C429.804 282.694 432.38 279.112 433.528 277.907C436.765 279.117 437.841 280.24 438.097 280.559C438.03 281.21 437.309 283.45 434.234 286.641C432.048 288.849 429.607 290.788 426.963 292.418ZM330.621 292.406C327.967 290.77 325.518 288.823 323.326 286.606C320.278 283.436 319.557 281.206 319.489 280.557C319.746 280.237 320.824 279.119 324.06 277.908C325.208 279.113 327.783 282.693 330.621 292.406V292.406Z" fill="white"/>
</svg>
