<svg width="514" height="720" viewBox="0 0 514 720" fill="none" xmlns="http://www.w3.org/2000/svg">
<path d="M513.406 463.569V204.6C513.406 201.992 512.37 199.49 510.525 197.646C508.681 195.801 506.179 194.765 503.571 194.765H370.819C369.527 194.765 368.249 195.019 367.055 195.514C365.862 196.008 364.778 196.732 363.865 197.646C362.952 198.559 362.227 199.643 361.733 200.836C361.239 202.03 360.985 203.309 360.985 204.6V463.59V463.607C360.983 491.185 350.025 517.633 330.523 537.132C311.021 556.631 284.571 567.584 256.993 567.582C229.415 567.58 202.967 556.622 183.468 537.12C163.969 517.618 153.016 491.168 153.018 463.59V204.6C153.018 201.992 151.982 199.49 150.137 197.646C148.293 195.801 145.791 194.765 143.183 194.765H10.429C7.82058 194.765 5.31903 195.801 3.47461 197.646C1.63019 199.49 0.593994 201.992 0.593994 204.6V463.59V463.624C0.612994 604.995 115.629 720 257 720C398.371 720 513.407 604.977 513.407 463.594L513.406 463.569ZM493.736 295.648H380.654V214.439H493.736V295.648ZM133.347 295.648H20.263V214.439H133.347V295.648ZM257 700.33C126.463 700.33 20.264 594.13 20.264 463.594V315.318H133.347V463.594C133.44 496.328 146.509 527.69 169.688 550.803C192.868 573.917 224.266 586.896 257 586.896C289.735 586.896 321.133 573.917 344.313 550.803C367.492 527.69 380.561 496.328 380.654 463.594V315.318H493.736V463.618C493.726 594.142 387.53 700.33 257 700.33Z" fill="white"/>
<path d="M411.525 94.556H465.5L433.651 155.023C433.02 156.168 432.624 157.427 432.486 158.726C432.348 160.026 432.47 161.34 432.845 162.592C433.22 163.844 433.841 165.008 434.672 166.017C435.502 167.026 436.526 167.86 437.682 168.469C438.838 169.078 440.104 169.451 441.406 169.565C442.708 169.679 444.02 169.533 445.265 169.134C446.509 168.736 447.662 168.093 448.656 167.244C449.649 166.395 450.463 165.356 451.051 164.189L490.5 89.3C491.289 87.8013 491.678 86.1241 491.629 84.431C491.58 82.7378 491.094 81.0861 490.219 79.6358C489.344 78.1855 488.109 76.9859 486.634 76.153C485.159 75.3201 483.494 74.8823 481.8 74.882H427.821L459.672 14.417C460.839 12.1144 461.054 9.44528 460.271 6.98557C459.487 4.52586 457.768 2.47281 455.484 1.26946C453.2 0.0661033 450.535 -0.191064 448.063 0.55345C445.591 1.29796 443.511 2.98446 442.272 5.249L402.823 80.137C402.034 81.6358 401.645 83.313 401.694 85.0062C401.743 86.6993 402.229 88.3511 403.104 89.8014C403.979 91.2518 405.214 92.4515 406.689 93.2845C408.164 94.1175 409.829 94.5555 411.523 94.556H411.525Z" fill="white"/>
<path d="M32.2001 94.556H86.1781L54.327 155.023C53.6966 156.168 53.3006 157.427 53.1622 158.726C53.0238 160.026 53.1459 161.34 53.5212 162.592C53.8965 163.844 54.5176 165.008 55.3481 166.017C56.1786 167.026 57.2019 167.86 58.3582 168.469C59.5145 169.078 60.7806 169.451 62.0825 169.565C63.3844 169.679 64.696 169.533 65.9407 169.134C67.1854 168.736 68.3382 168.093 69.3317 167.244C70.3252 166.395 71.1395 165.356 71.727 164.189L111.177 89.3C111.966 87.8013 112.355 86.1241 112.305 84.4311C112.256 82.7381 111.77 81.0865 110.895 79.6363C110.02 78.1861 108.785 76.9865 107.31 76.1535C105.836 75.3206 104.171 74.8826 102.477 74.882H48.5L80.347 14.42C80.9775 13.2752 81.3735 12.0163 81.5119 10.7167C81.6502 9.41711 81.5282 8.103 81.1529 6.85113C80.7776 5.59926 80.1565 4.43475 79.326 3.42564C78.4955 2.41654 77.4722 1.58308 76.3159 0.973963C75.1596 0.36485 73.8935 -0.00769801 72.5916 -0.12191C71.2897 -0.236122 69.9781 -0.089708 68.7334 0.308777C67.4887 0.707261 66.3359 1.34982 65.3424 2.19892C64.3489 3.04801 63.5346 4.0866 62.947 5.254L23.5 80.138C22.7107 81.6367 22.3218 83.3139 22.3711 85.007C22.4204 86.7002 22.9061 88.3519 23.7812 89.8022C24.6564 91.2525 25.8912 92.4522 27.3662 93.285C28.8411 94.1179 30.5062 94.5557 32.2001 94.556V94.556Z" fill="white"/>
</svg>
