<svg width="572" height="720" viewBox="0 0 572 720" fill="none" xmlns="http://www.w3.org/2000/svg">
<path d="M286.007 520.637C212.856 520.637 146.557 470.243 129.486 395.989C124.76 375.433 124.129 354.147 127.629 333.346C131.13 312.546 138.692 292.639 149.886 274.762C161.08 256.884 175.685 241.387 192.868 229.154C210.051 216.921 229.476 208.192 250.032 203.466C270.588 198.74 291.874 198.109 312.675 201.609C333.475 205.109 353.382 212.672 371.259 223.866C389.137 235.06 404.634 249.665 416.867 266.848C429.1 284.031 437.829 303.456 442.555 324.012C462.399 410.325 408.322 496.688 322.009 516.535C310.202 519.257 298.124 520.633 286.007 520.637V520.637ZM286.288 221.149C275.731 221.155 265.208 222.356 254.921 224.729C237.157 228.813 220.371 236.356 205.522 246.927C190.673 257.498 178.052 270.891 168.378 286.34C158.705 301.789 152.169 318.992 149.145 336.966C146.12 354.941 146.665 373.336 150.749 391.1C167.9 465.688 242.536 512.418 317.12 495.27C391.704 478.122 438.44 403.489 421.291 328.9C414.253 298.339 397.082 271.058 372.571 251.495C348.06 231.931 317.652 221.236 286.291 221.148L286.288 221.149Z" fill="white"/>
<path d="M267.461 419.609C266.028 419.608 264.609 419.326 263.286 418.776C261.962 418.227 260.76 417.423 259.747 416.409L201.323 357.983C200.31 356.97 199.506 355.767 198.958 354.444C198.41 353.12 198.128 351.702 198.128 350.269C198.128 348.836 198.41 347.418 198.958 346.094C199.506 344.771 200.31 343.568 201.323 342.555C202.336 341.542 203.539 340.738 204.862 340.19C206.186 339.642 207.604 339.36 209.037 339.36C210.47 339.36 211.888 339.642 213.212 340.19C214.535 340.738 215.738 341.542 216.751 342.555L267.461 393.266L355.249 305.478C357.301 303.461 360.067 302.336 362.944 302.349C365.821 302.361 368.577 303.51 370.611 305.544C372.646 307.579 373.794 310.335 373.807 313.212C373.819 316.089 372.694 318.855 370.677 320.907L275.177 416.407C274.164 417.421 272.962 418.226 271.638 418.776C270.314 419.325 268.894 419.608 267.461 419.609V419.609Z" fill="white"/>
<path d="M286 720C283.867 720 281.781 719.374 280 718.2L252.553 700.11C238.411 690.784 114.391 608.886 71.88 577.471C27.164 544.422 0.467987 486.094 0.467987 421.443V127.043C0.467987 124.15 1.61731 121.375 3.66312 119.329C5.70892 117.283 8.48368 116.133 11.377 116.133C131.02 116.133 277.847 3.42598 279.316 2.28598C281.23 0.805476 283.581 0.00219727 286 0.00219727C288.419 0.00219727 290.77 0.805476 292.684 2.28598C294.153 3.42598 440.984 116.133 560.623 116.133C563.516 116.133 566.291 117.283 568.337 119.329C570.383 121.375 571.532 124.15 571.532 127.043V421.443C571.532 486.096 544.832 544.422 500.121 577.469C457.603 608.889 333.587 690.785 319.586 700.019L292 718.2C290.219 719.374 288.133 720 286 720V720ZM22.287 137.679V421.443C22.287 479.204 45.674 530.972 84.847 559.925C126.9 591 250.474 672.6 264.426 681.8L286 696.025L307.441 681.894C321.524 672.604 445.091 591.007 487.154 559.923C526.327 530.972 549.713 479.204 549.713 421.443V137.679C438.9 132.238 316.026 46.675 286 24.554C255.974 46.675 133.1 132.238 22.287 137.679Z" fill="white"/>
</svg>
