<svg width="714" height="720" viewBox="0 0 714 720" fill="none" xmlns="http://www.w3.org/2000/svg">
<path d="M461.654 328.111H252.359C248.153 328.11 244.119 326.439 241.145 323.465C238.171 320.49 236.5 316.456 236.5 312.25V290.55C236.546 272.011 240.857 253.73 249.099 237.123C257.341 220.517 269.294 206.029 284.032 194.782C266.984 179.924 254.879 160.215 249.334 138.292C243.789 116.368 245.069 93.274 253.002 72.0973C260.936 50.9206 275.145 32.6704 293.729 19.7865C312.314 6.90272 334.39 -0.000656128 357.003 -0.000656128C379.617 -0.000656128 401.693 6.90272 420.277 19.7865C438.862 32.6704 453.071 50.9206 461.005 72.0973C468.938 93.274 470.218 116.368 464.673 138.292C459.128 160.215 447.023 179.924 429.975 194.782C444.714 206.029 456.667 220.516 464.909 237.123C473.151 253.73 477.462 272.01 477.507 290.55V312.25C477.507 316.455 475.837 320.488 472.864 323.463C469.891 326.437 465.859 328.109 461.654 328.111V328.111ZM268.214 296.39H445.8V290.55C445.746 273.593 440.854 257.005 431.699 242.732C422.543 228.459 409.505 217.096 394.115 209.977C391.421 208.734 389.13 206.761 387.502 204.281C385.874 201.801 384.974 198.914 384.904 195.948C384.835 192.982 385.599 190.056 387.109 187.502C388.62 184.949 390.816 182.87 393.449 181.503C409.249 173.336 421.848 160.097 429.224 143.912C436.599 127.727 438.324 109.533 434.121 92.2506C429.919 74.9678 420.032 59.5978 406.048 48.6068C392.064 37.6157 374.793 31.6409 357.006 31.6409C339.22 31.6409 321.949 37.6157 307.965 48.6068C293.981 59.5978 284.094 74.9678 279.892 92.2506C275.689 109.533 277.414 127.727 284.789 143.912C292.165 160.097 304.764 173.336 320.564 181.503C323.197 182.87 325.394 184.948 326.905 187.502C328.416 190.055 329.18 192.981 329.11 195.947C329.041 198.913 328.141 201.801 326.513 204.281C324.885 206.761 322.593 208.734 319.899 209.977C304.509 217.096 291.471 228.459 282.316 242.732C273.16 257.004 268.269 273.594 268.215 290.55L268.214 296.39Z" fill="white"/>
<path d="M225.4 720H16.1001C11.8946 719.998 7.8618 718.327 4.88858 715.352C1.91536 712.378 0.245117 708.345 0.245117 704.139V682.439C0.291055 663.9 4.60174 645.62 12.8436 629.013C21.0855 612.407 33.0376 597.919 47.7751 586.671C30.7236 571.812 18.6146 552.101 13.0673 530.175C7.51995 508.248 8.79862 485.15 16.7323 463.97C24.666 442.79 38.8767 424.536 57.4642 411.65C76.0517 398.764 98.1301 391.859 120.748 391.859C143.365 391.859 165.444 398.764 184.031 411.65C202.619 424.536 216.829 442.79 224.763 463.97C232.697 485.15 233.975 508.248 228.428 530.175C222.881 552.101 210.772 571.812 193.72 586.671C208.458 597.918 220.411 612.406 228.653 629.013C236.895 645.619 241.205 663.9 241.25 682.439V704.139C241.25 708.344 239.581 712.376 236.608 715.351C233.636 718.325 229.605 719.997 225.4 720V720ZM31.9601 688.279H209.542V682.439C209.489 665.483 204.597 648.894 195.442 634.621C186.287 620.349 173.249 608.985 157.859 601.866C155.165 600.624 152.873 598.65 151.244 596.17C149.615 593.69 148.715 590.803 148.646 587.837C148.576 584.871 149.341 581.944 150.852 579.391C152.363 576.837 154.56 574.759 157.193 573.392C172.99 565.225 185.585 551.988 192.958 535.805C200.331 519.623 202.055 501.432 197.852 484.153C193.649 466.874 183.764 451.507 169.782 440.518C155.8 429.529 138.533 423.556 120.75 423.556C102.967 423.556 85.6988 429.529 71.7171 440.518C57.7354 451.507 47.8502 466.874 43.6474 484.153C39.4447 501.432 41.1681 519.623 48.5412 535.805C55.9142 551.988 68.5095 565.225 84.3061 573.392C86.9396 574.759 89.1367 576.837 90.6477 579.391C92.1588 581.944 92.9231 584.87 92.8539 587.836C92.7846 590.803 91.8845 593.69 90.2559 596.17C88.6273 598.65 86.3355 600.624 83.6411 601.866C68.2519 608.986 55.2141 620.349 46.0589 634.622C36.9038 648.894 32.0117 665.483 31.9571 682.439L31.9601 688.279Z" fill="white"/>
<path d="M697.9 720H488.6C484.395 719.998 480.362 718.327 477.389 715.352C474.415 712.378 472.745 708.345 472.745 704.139V682.439C472.791 663.9 477.102 645.62 485.344 629.013C493.586 612.407 505.538 597.919 520.275 586.671C503.224 571.812 491.115 552.101 485.567 530.175C480.02 508.248 481.299 485.15 489.232 463.97C497.166 442.79 511.377 424.536 529.964 411.65C548.552 398.764 570.63 391.859 593.248 391.859C615.865 391.859 637.944 398.764 656.531 411.65C675.119 424.536 689.329 442.79 697.263 463.97C705.197 485.15 706.475 508.248 700.928 530.175C695.381 552.101 683.272 571.812 666.22 586.671C680.958 597.918 692.911 612.406 701.153 629.013C709.395 645.619 713.705 663.9 713.75 682.439V704.139C713.751 708.344 712.081 712.377 709.109 715.351C706.137 718.325 702.105 719.998 697.9 720V720ZM504.46 688.279H682.043V682.439C681.99 665.482 677.098 648.893 667.943 634.621C658.788 620.348 645.749 608.985 630.359 601.866C627.665 600.623 625.374 598.65 623.745 596.17C622.117 593.69 621.217 590.802 621.148 587.836C621.078 584.87 621.843 581.944 623.353 579.391C624.864 576.837 627.061 574.759 629.694 573.392C645.491 565.225 658.087 551.988 665.46 535.805C672.834 519.622 674.558 501.432 670.355 484.152C666.152 466.872 656.267 451.505 642.285 440.516C628.303 429.527 611.035 423.553 593.252 423.553C575.468 423.553 558.2 429.527 544.218 440.516C530.236 451.505 520.351 466.872 516.148 484.152C511.946 501.432 513.669 519.622 521.043 535.805C528.416 551.988 541.012 565.225 556.809 573.392C559.442 574.759 561.639 576.838 563.149 579.392C564.66 581.945 565.424 584.871 565.354 587.837C565.285 590.803 564.384 593.69 562.756 596.17C561.127 598.65 558.835 600.624 556.141 601.866C540.753 608.987 527.715 620.35 518.56 634.623C509.406 648.895 504.513 665.483 504.458 682.439L504.46 688.279Z" fill="white"/>
<path d="M106.071 363.706C106.072 359.811 107.619 356.076 110.372 353.322C113.126 350.568 116.861 349.021 120.755 349.02V349.02C124.649 349.024 128.382 350.572 131.136 353.326C133.889 356.079 135.438 359.812 135.441 363.706V363.706C135.437 367.599 133.888 371.332 131.135 374.085C128.382 376.838 124.649 378.386 120.755 378.39V378.39C116.861 378.389 113.127 376.842 110.373 374.088C107.62 371.334 106.072 367.6 106.071 363.706V363.706ZM106.071 316.713C106.072 312.819 107.62 309.085 110.373 306.331C113.127 303.577 116.861 302.03 120.755 302.029V302.029C124.649 302.033 128.382 303.581 131.135 306.334C133.888 309.087 135.437 312.82 135.441 316.713V316.713C135.438 320.607 133.889 324.341 131.136 327.094C128.383 329.848 124.649 331.396 120.755 331.4C116.861 331.399 113.126 329.851 110.372 327.097C107.619 324.343 106.072 320.608 106.071 316.713ZM106.071 269.722C106.072 265.828 107.619 262.093 110.373 259.339C113.126 256.585 116.861 255.038 120.755 255.037V255.037C124.649 255.041 128.382 256.589 131.135 259.342C133.889 262.095 135.437 265.828 135.441 269.722V269.722C135.439 273.616 133.89 277.35 131.137 280.103C128.383 282.856 124.649 284.404 120.755 284.406V284.406C116.861 284.405 113.127 282.858 110.373 280.104C107.619 277.351 106.072 273.616 106.071 269.722V269.722Z" fill="white"/>
<path d="M120.755 285.548C116.549 285.546 112.517 283.875 109.543 280.9C106.57 277.926 104.9 273.893 104.9 269.687V131.624C104.897 123.37 106.52 115.196 109.678 107.569C112.835 99.9425 117.464 93.0128 123.301 87.176C129.137 81.3391 136.067 76.7096 143.693 73.552C151.32 70.3943 159.494 68.7704 167.748 68.773H265.586C269.771 68.8062 273.773 70.4919 276.72 73.4627C279.667 76.4335 281.321 80.4487 281.321 84.6335C281.321 88.8183 279.667 92.8335 276.72 95.8043C273.773 98.7751 269.771 100.461 265.586 100.494H167.748C163.659 100.492 159.609 101.295 155.831 102.858C152.052 104.422 148.619 106.715 145.727 109.606C142.835 112.497 140.542 115.929 138.977 119.708C137.413 123.486 136.608 127.535 136.61 131.624V269.687C136.61 273.893 134.94 277.926 131.966 280.9C128.993 283.875 124.96 285.546 120.755 285.548V285.548Z" fill="white"/>
<path d="M593.256 147.487C589.05 147.486 585.017 145.814 582.043 142.839C579.07 139.864 577.4 135.83 577.4 131.624C577.389 123.37 574.105 115.457 568.268 109.622C562.431 103.786 554.518 100.503 546.264 100.494H448.414C444.23 100.461 440.228 98.7751 437.28 95.8043C434.333 92.8335 432.679 88.8183 432.679 84.6335C432.679 80.4487 434.333 76.4335 437.28 73.4627C440.228 70.4919 444.23 68.8062 448.414 68.773H546.265C562.928 68.791 578.904 75.4187 590.686 87.2018C602.468 98.9849 609.095 114.961 609.111 131.624C609.112 135.83 607.442 139.864 604.469 142.839C601.495 145.813 597.462 147.485 593.256 147.487V147.487Z" fill="white"/>
<path d="M578.572 279C578.573 275.105 580.12 271.37 582.873 268.616C585.627 265.862 589.362 264.315 593.256 264.314V264.314C597.151 264.315 600.886 265.862 603.64 268.616C606.394 271.37 607.942 275.105 607.942 279V279C607.941 282.894 606.393 286.629 603.639 289.382C600.885 292.136 597.151 293.683 593.256 293.683V293.683C589.362 293.682 585.628 292.135 582.874 289.382C580.121 286.628 578.573 282.894 578.572 279V279ZM578.572 232.007C578.573 228.113 580.12 224.378 582.874 221.624C585.627 218.87 589.362 217.322 593.256 217.321V217.321C597.151 217.322 600.886 218.869 603.64 221.623C606.394 224.377 607.942 228.112 607.942 232.007V232.007C607.943 233.936 607.563 235.846 606.826 237.629C606.088 239.411 605.006 241.031 603.642 242.395C602.279 243.76 600.66 244.842 598.878 245.581C597.095 246.319 595.185 246.7 593.256 246.7V246.7C589.361 246.699 585.626 245.15 582.873 242.396C580.119 239.641 578.572 235.906 578.572 232.011V232.007ZM578.572 185.014C578.573 181.12 580.12 177.385 582.874 174.632C585.628 171.878 589.362 170.331 593.256 170.33V170.33C597.151 170.331 600.886 171.878 603.64 174.631C606.394 177.385 607.941 181.12 607.942 185.014V185.014C607.942 188.909 606.394 192.644 603.64 195.398C600.886 198.152 597.151 199.699 593.256 199.7V199.7C589.362 199.699 585.628 198.152 582.875 195.399C580.121 192.646 578.574 188.912 578.572 185.018V185.014ZM578.572 138.024C578.573 134.129 580.12 130.394 582.873 127.64C585.627 124.886 589.362 123.339 593.256 123.338V123.338C597.151 123.339 600.886 124.886 603.64 127.64C606.394 130.394 607.942 134.129 607.942 138.024V138.024C607.941 141.918 606.393 145.653 603.639 148.406C600.885 151.16 597.151 152.707 593.256 152.707V152.707C589.363 152.706 585.629 151.16 582.876 148.407C580.122 145.655 578.574 141.921 578.572 138.028V138.024Z" fill="white"/>
<path d="M593.256 423.61C589.051 423.609 585.018 421.938 582.044 418.963C579.071 415.989 577.4 411.956 577.4 407.75V278.968C577.4 274.763 579.071 270.73 582.044 267.757C585.018 264.783 589.05 263.113 593.255 263.113C597.46 263.113 601.493 264.783 604.467 267.757C607.44 270.73 609.11 274.763 609.11 278.968V407.75C609.11 411.955 607.44 415.988 604.467 418.963C601.494 421.937 597.462 423.608 593.256 423.61V423.61Z" fill="white"/>
<path d="M493.789 510.2H225.4C221.193 510.2 217.159 508.529 214.185 505.554C211.21 502.58 209.539 498.546 209.539 494.339C209.539 490.132 211.21 486.098 214.185 483.124C217.159 480.149 221.193 478.478 225.4 478.478H493.789C497.996 478.478 502.03 480.149 505.004 483.124C507.979 486.098 509.65 490.132 509.65 494.339C509.65 498.546 507.979 502.58 505.004 505.554C502.03 508.529 497.996 510.2 493.789 510.2Z" fill="white"/>
<path d="M450.79 419.159H287.2C282.994 419.159 278.959 417.488 275.985 414.513C273.01 411.539 271.339 407.505 271.339 403.298C271.339 399.091 273.01 395.057 275.985 392.083C278.959 389.108 282.994 387.437 287.2 387.437H450.79C454.997 387.437 459.031 389.108 462.006 392.083C464.98 395.057 466.651 399.091 466.651 403.298C466.651 407.505 464.98 411.539 462.006 414.513C459.031 417.488 454.997 419.159 450.79 419.159Z" fill="white"/>
<path d="M311.178 443.441C309.061 443.444 306.982 442.868 305.167 441.777L257.189 413.089C255.444 412.047 253.999 410.571 252.995 408.803C251.991 407.035 251.464 405.038 251.464 403.005C251.464 400.972 251.991 398.975 252.995 397.207C253.999 395.439 255.444 393.963 257.189 392.921L304.18 364.821C305.505 364.016 306.976 363.481 308.509 363.247C310.041 363.013 311.605 363.085 313.11 363.458C314.614 363.831 316.03 364.499 317.276 365.422C318.521 366.345 319.572 367.505 320.367 368.836C321.162 370.167 321.685 371.642 321.907 373.177C322.129 374.711 322.045 376.274 321.661 377.776C321.276 379.278 320.597 380.688 319.665 381.927C318.732 383.165 317.563 384.206 316.226 384.991L286.1 403.005L317.215 421.605C319.424 422.924 321.14 424.931 322.097 427.319C323.055 429.706 323.203 432.342 322.517 434.822C321.832 437.302 320.351 439.488 318.303 441.045C316.255 442.601 313.752 443.442 311.179 443.439L311.178 443.441Z" fill="white"/>
<path d="M426.8 600.2H263.212C259.027 600.167 255.026 598.481 252.078 595.51C249.131 592.54 247.477 588.524 247.477 584.339C247.477 580.155 249.131 576.14 252.078 573.169C255.026 570.198 259.027 568.512 263.212 568.479H426.8C430.985 568.512 434.987 570.198 437.934 573.169C440.881 576.14 442.535 580.155 442.535 584.339C442.535 588.524 440.881 592.54 437.934 595.51C434.987 598.481 430.985 600.167 426.8 600.2V600.2Z" fill="white"/>
<path d="M403.808 624.473C401.236 624.476 398.734 623.635 396.686 622.078C394.638 620.521 393.158 618.335 392.472 615.856C391.787 613.377 391.935 610.741 392.893 608.354C393.85 605.966 395.565 603.959 397.774 602.641L427.9 584.628L396.786 566.028C394.141 564.413 392.24 561.819 391.498 558.81C390.756 555.801 391.232 552.621 392.823 549.961C394.415 547.302 396.992 545.378 399.995 544.61C402.997 543.841 406.182 544.29 408.855 545.858L456.822 574.54C458.565 575.584 460.008 577.062 461.01 578.83C462.011 580.598 462.537 582.595 462.536 584.627C462.535 586.659 462.007 588.656 461.004 590.423C460 592.19 458.556 593.666 456.811 594.708L409.818 622.808C408.003 623.899 405.925 624.475 403.808 624.473V624.473Z" fill="white"/>
</svg>
