<svg width="250" height="90" viewBox="0 0 250 90" fill="none" xmlns="http://www.w3.org/2000/svg">
<path d="M0 1.93549H32.8477C46.6147 1.93549 57.2419 5.76613 64.7293 13.4274C72.2166 21.1694 75.9603 31.6936 75.9603 45C75.9603 58.3065 72.2166 68.7903 64.7293 76.4516C57.2419 84.1935 46.6147 88.0645 32.8477 88.0645H0V1.93549ZM16.3031 74.0322H32.6062C41.0596 74.0322 47.5808 71.5726 52.1699 66.6532C56.7589 61.6532 59.0534 54.4355 59.0534 45C59.0534 35.5645 56.7589 28.3871 52.1699 23.4677C47.5808 18.4677 41.0596 15.9677 32.6062 15.9677H16.3031V74.0322Z" fill="#1A1A1A"/>
<path d="M153.263 77.6613C145.373 85.8871 134.987 90 122.106 90C109.224 90 98.8384 85.8871 90.9485 77.6613C83.0586 69.3548 79.1137 58.4677 79.1137 45C79.1137 31.5323 83.0586 20.6452 90.9485 12.3387C98.8384 4.1129 109.224 0 122.106 0C134.987 0 145.373 4.1129 153.263 12.3387C161.072 20.4839 164.977 31.371 164.977 45C164.977 58.629 161.072 69.5161 153.263 77.6613ZM96.1414 45C96.1414 54.4355 98.5164 61.8952 103.266 67.379C108.016 72.8629 114.296 75.6048 122.106 75.6048C129.995 75.6048 136.315 72.8629 141.065 67.379C145.735 61.9758 148.07 54.5161 148.07 45C148.07 35.4839 145.735 28.0242 141.065 22.621C136.315 17.1371 129.995 14.3952 122.106 14.3952C114.296 14.3952 108.016 17.1371 103.266 22.621C98.5164 28.1048 96.1414 35.5645 96.1414 45Z" fill="#1A1A1A"/>
<path d="M210.049 90C197.651 90 187.628 85.9274 179.979 77.7823C172.25 69.6371 168.386 58.7097 168.386 45C168.386 31.2097 172.21 20.2419 179.859 12.0968C187.426 4.03226 197.49 0 210.049 0C220.113 0 228.687 2.70161 235.772 8.10484C242.857 13.5081 247.285 21.3306 249.056 31.5726H232.511C231.062 25.9274 228.365 21.6532 224.42 18.75C220.556 15.7661 215.766 14.2742 210.049 14.2742C202.401 14.2742 196.363 17.0161 191.935 22.5C187.587 27.9032 185.414 35.4032 185.414 45C185.414 54.6774 187.587 62.2177 191.935 67.621C196.282 73.0242 202.321 75.7258 210.049 75.7258C216.007 75.7258 221.119 73.9516 225.386 70.4032C229.653 66.8548 232.23 61.9355 233.115 55.6452H249.418C248.372 66.6129 244.105 75.0806 236.617 81.0484C229.211 87.0161 220.355 90 210.049 90Z" fill="#1A1A1A"/>
</svg>
